<svg version="1.1" viewBox="0.0 0.0 960.0 175.6797900262467" fill="none" stroke="none" stroke-linecap="square" stroke-miterlimit="10" xmlns:xlink="http://www.w3.org/1999/xlink" xmlns="http://www.w3.org/2000/svg"><clipPath id="p.0"><path d="m0 0l960.0 0l0 175.6798l-960.0 0l0 -175.6798z" clip-rule="nonzero"/></clipPath><g clip-path="url(#p.0)"><path fill="#000000" fill-opacity="0.0" d="m0 0l960.0 0l0 175.6798l-960.0 0z" fill-rule="evenodd"/><path fill="#000000" fill-opacity="0.0" d="m0 0.23369291l960.0 0l0 175.2126l-960.0 0z" fill-rule="evenodd"/><path fill="#23262e" d="m56.552734 34.43369l-11.0 0q-0.71875 0 -1.03125 -0.28125q-0.3125 -0.265625 -0.3125 -0.703125q0 -0.453125 0.3125 -0.734375q0.3125 -0.28125 1.03125 -0.28125l11.0 0q0.703125 0 1.015625 0.28125q0.3125 0.28125 0.3125 0.734375q0 0.4375 -0.3125 0.703125q-0.296875 0.28125 -1.015625 0.28125zm12.001953 0l-11.0 0q-0.71875 0 -1.03125 -0.28125q-0.3125 -0.265625 -0.3125 -0.703125q0 -0.453125 0.3125 -0.734375q0.3125 -0.28125 1.03125 -0.28125l11.0 0q0.703125 0 1.015625 0.28125q0.3125 0.28125 0.3125 0.734375q0 0.4375 -0.3125 0.703125q-0.296875 0.28125 -1.015625 0.28125zm12.001953 0l-11.0 0q-0.71875 0 -1.03125 -0.28125q-0.3125 -0.265625 -0.3125 -0.703125q0 -0.453125 0.3125 -0.734375q0.3125 -0.28125 1.03125 -0.28125l11.0 0q0.703125 0 1.015625 0.28125q0.3125 0.28125 0.3125 0.734375q0 0.4375 -0.3125 0.703125q-0.296875 0.28125 -1.015625 0.28125zm408.0664 0l-11.0 0q-0.71875 0 -1.03125 -0.28125q-0.3125 -0.265625 -0.3125 -0.703125q0 -0.453125 0.3125 -0.734375q0.3125 -0.28125 1.03125 -0.28125l11.0 0q0.703125 0 1.015625 0.28125q0.3125 0.28125 0.3125 0.734375q0 0.4375 -0.3125 0.703125q-0.296875 0.28125 -1.015625 0.28125zm12.001953 0l-11.0 0q-0.71875 0 -1.03125 -0.28125q-0.3125 -0.265625 -0.3125 -0.703125q0 -0.453125 0.3125 -0.734375q0.3125 -0.28125 1.03125 -0.28125l11.0 0q0.703125 0 1.015625 0.28125q0.3125 0.28125 0.3125 0.734375q0 0.4375 -0.3125 0.703125q-0.296875 0.28125 -1.015625 0.28125zm324.05273 0l-11.0 0q-0.71875 0 -1.03125 -0.28125q-0.3125 -0.265625 -0.3125 -0.703125q0 -0.453125 0.3125 -0.734375q0.3125 -0.28125 1.03125 -0.28125l11.0 0q0.703125 0 1.015625 0.28125q0.3125 0.28125 0.3125 0.734375q0 0.4375 -0.3125 0.703125q-0.296875 0.28125 -1.015625 0.28125zm84.01367 0l-11.0 0q-0.71875 0 -1.03125 -0.28125q-0.3125 -0.265625 -0.3125 -0.703125q0 -0.453125 0.3125 -0.734375q0.3125 -0.28125 1.03125 -0.28125l11.0 0q0.703125 0 1.015625 0.28125q0.3125 0.28125 0.3125 0.734375q0 0.4375 -0.3125 0.703125q-0.296875 0.28125 -1.015625 0.28125z" fill-rule="nonzero"/><path fill="#23262e" d="m43.128906 48.598866l-6.40625 13.828125q-0.25 0.515625 -0.453125 0.671875q-0.25 0.21875 -0.609375 0.21875q-0.40625 0 -0.703125 -0.296875q-0.296875 -0.296875 -0.296875 -0.671875q0 -0.265625 0.234375 -0.765625l6.4375 -13.828125q0.234375 -0.515625 0.421875 -0.671875q0.265625 -0.203125 0.609375 -0.203125q0.421875 0 0.703125 0.296875q0.296875 0.28125 0.296875 0.65625q0 0.265625 -0.234375 0.765625zm25.425781 18.406254l-11.0 0q-0.71875 0 -1.03125 -0.28125q-0.3125 -0.265625 -0.3125 -0.703125q0 -0.453125 0.3125 -0.734375q0.3125 -0.28125 1.03125 -0.28125l11.0 0q0.703125 0 1.015625 0.28125q0.3125 0.28125 0.3125 0.734375q0 0.4375 -0.3125 0.703125q-0.296875 0.28125 -1.015625 0.28125zm12.001953 0l-11.0 0q-0.71875 0 -1.03125 -0.28125q-0.3125 -0.265625 -0.3125 -0.703125q0 -0.453125 0.3125 -0.734375q0.3125 -0.28125 1.03125 -0.28125l11.0 0q0.703125 0 1.015625 0.28125q0.3125 0.28125 0.3125 0.734375q0 0.4375 -0.3125 0.703125q-0.296875 0.28125 -1.015625 0.28125zm4.173828 -19.250004l6.421875 13.78125q0.046875 0.109375 0.15625 0.5q0.0625 0.21875 0.0625 0.34375q0 0.34375 -0.28125 0.609375q-0.265625 0.265625 -0.6875 0.265625q-0.375 0 -0.609375 -0.1875q-0.21875 -0.171875 -0.453125 -0.671875l-6.421875 -13.78125q-0.25 -0.515625 -0.25 -0.78125q0 -0.359375 0.296875 -0.65625q0.296875 -0.296875 0.703125 -0.296875q0.359375 0 0.578125 0.1875q0.234375 0.171875 0.484375 0.6875zm31.832031 19.250004l-11.0 0q-0.71875 0 -1.03125 -0.28125q-0.3125 -0.265625 -0.3125 -0.703125q0 -0.453125 0.3125 -0.734375q0.3125 -0.28125 1.03125 -0.28125l11.0 0q0.703125 0 1.015625 0.28125q0.3125 0.28125 0.3125 0.734375q0 0.4375 -0.3125 0.703125q-0.296875 0.28125 -1.015625 0.28125zm12.001953 0l-11.0 0q-0.71875 0 -1.03125 -0.28125q-0.3125 -0.265625 -0.3125 -0.703125q0 -0.453125 0.3125 -0.734375q0.3125 -0.28125 1.03125 -0.28125l11.0 0q0.703125 0 1.015625 0.28125q0.3125 0.28125 0.3125 0.734375q0 0.4375 -0.3125 0.703125q-0.296875 0.28125 -1.015625 0.28125zm12.001953 0l-11.0 0q-0.71875 0 -1.03125 -0.28125q-0.3125 -0.265625 -0.3125 -0.703125q0 -0.453125 0.3125 -0.734375q0.3125 -0.28125 1.03125 -0.28125l11.0 0q0.703125 0 1.015625 0.28125q0.3125 0.28125 0.3125 0.734375q0 0.4375 -0.3125 0.703125q-0.296875 0.28125 -1.015625 0.28125zm36.00586 0l-11.0 0q-0.71875 0 -1.03125 -0.28125q-0.3125 -0.265625 -0.3125 -0.703125q0 -0.453125 0.3125 -0.734375q0.3125 -0.28125 1.03125 -0.28125l11.0 0q0.703125 0 1.015625 0.28125q0.3125 0.28125 0.3125 0.734375q0 0.4375 -0.3125 0.703125q-0.296875 0.28125 -1.015625 0.28125zm24.003906 0l-11.0 0q-0.71875 0 -1.03125 -0.28125q-0.3125 -0.265625 -0.3125 -0.703125q0 -0.453125 0.3125 -0.734375q0.3125 -0.28125 1.03125 -0.28125l11.0 0q0.703125 0 1.015625 0.28125q0.3125 0.28125 0.3125 0.734375q0 0.4375 -0.3125 0.703125q-0.296875 0.28125 -1.015625 0.28125zm12.001953 0l-11.0 0q-0.71875 0 -1.03125 -0.28125q-0.3125 -0.265625 -0.3125 -0.703125q0 -0.453125 0.3125 -0.734375q0.3125 -0.28125 1.03125 -0.28125l11.0 0q0.703125 0 1.015625 0.28125q0.3125 0.28125 0.3125 0.734375q0 0.4375 -0.3125 0.703125q-0.296875 0.28125 -1.015625 0.28125zm36.00586 0l-11.0 0q-0.71875 0 -1.03125 -0.28125q-0.3125 -0.265625 -0.3125 -0.703125q0 -0.453125 0.3125 -0.734375q0.3125 -0.28125 1.03125 -0.28125l11.0 0q0.703125 0 1.015625 0.28125q0.3125 0.28125 0.3125 0.734375q0 0.4375 -0.3125 0.703125q-0.296875 0.28125 -1.015625 0.28125zm24.003906 0l-11.0 0q-0.71875 0 -1.03125 -0.28125q-0.3125 -0.265625 -0.3125 -0.703125q0 -0.453125 0.3125 -0.734375q0.3125 -0.28125 1.03125 -0.28125l11.0 0q0.703125 0 1.015625 0.28125q0.3125 0.28125 0.3125 0.734375q0 0.4375 -0.3125 0.703125q-0.296875 0.28125 -1.015625 0.28125zm12.001953 0l-11.0 0q-0.71875 0 -1.03125 -0.28125q-0.3125 -0.265625 -0.3125 -0.703125q0 -0.453125 0.3125 -0.734375q0.3125 -0.28125 1.03125 -0.28125l11.0 0q0.703125 0 1.015625 0.28125q0.3125 0.28125 0.3125 0.734375q0 0.4375 -0.3125 0.703125q-0.296875 0.28125 -1.015625 0.28125zm48.007812 0l-11.0 0q-0.71875 0 -1.03125 -0.28125q-0.3125 -0.265625 -0.3125 -0.703125q0 -0.453125 0.3125 -0.734375q0.3125 -0.28125 1.03125 -0.28125l11.0 0q0.703125 0 1.015625 0.28125q0.3125 0.28125 0.3125 0.734375q0 0.4375 -0.3125 0.703125q-0.296875 0.28125 -1.015625 0.28125zm12.001953 0l-11.0 0q-0.71875 0 -1.03125 -0.28125q-0.3125 -0.265625 -0.3125 -0.703125q0 -0.453125 0.3125 -0.734375q0.3125 -0.28125 1.03125 -0.28125l11.0 0q0.703125 0 1.015625 0.28125q0.3125 0.28125 0.3125 0.734375q0 0.4375 -0.3125 0.703125q-0.296875 0.28125 -1.015625 0.28125zm12.001953 0l-11.0 0q-0.71875 0 -1.03125 -0.28125q-0.3125 -0.265625 -0.3125 -0.703125q0 -0.453125 0.3125 -0.734375q0.3125 -0.28125 1.03125 -0.28125l11.0 0q0.703125 0 1.015625 0.28125q0.3125 0.28125 0.3125 0.734375q0 0.4375 -0.3125 0.703125q-0.296875 0.28125 -1.015625 0.28125zm36.00586 0l-11.0 0q-0.71875 0 -1.03125 -0.28125q-0.3125 -0.265625 -0.3125 -0.703125q0 -0.453125 0.3125 -0.734375q0.3125 -0.28125 1.03125 -0.28125l11.0 0q0.703125 0 1.015625 0.28125q0.3125 0.28125 0.3125 0.734375q0 0.4375 -0.3125 0.703125q-0.296875 0.28125 -1.015625 0.28125zm24.003906 0l-11.0 0q-0.71875 0 -1.03125 -0.28125q-0.3125 -0.265625 -0.3125 -0.703125q0 -0.453125 0.3125 -0.734375q0.3125 -0.28125 1.03125 -0.28125l11.0 0q0.703125 0 1.015625 0.28125q0.3125 0.28125 0.3125 0.734375q0 0.4375 -0.3125 0.703125q-0.296875 0.28125 -1.015625 0.28125zm12.001953 0l-11.0 0q-0.71875 0 -1.03125 -0.28125q-0.3125 -0.265625 -0.3125 -0.703125q0 -0.453125 0.3125 -0.734375q0.3125 -0.28125 1.03125 -0.28125l11.0 0q0.703125 0 1.015625 0.28125q0.3125 0.28125 0.3125 0.734375q0 0.4375 -0.3125 0.703125q-0.296875 0.28125 -1.015625 0.28125zm52.18164 -19.250004l6.421875 13.78125q0.046875 0.109375 0.15625 0.5q0.0625 0.21875 0.0625 0.34375q0 0.34375 -0.28125 0.609375q-0.265625 0.265625 -0.6875 0.265625q-0.375 0 -0.609375 -0.1875q-0.21875 -0.171875 -0.453125 -0.671875l-6.421875 -13.78125q-0.25 -0.515625 -0.25 -0.78125q0 -0.359375 0.296875 -0.65625q0.296875 -0.296875 0.703125 -0.296875q0.359375 0 0.578125 0.1875q0.234375 0.171875 0.484375 0.6875zm24.003906 0l6.421875 13.78125q0.046875 0.109375 0.15625 0.5q0.0625 0.21875 0.0625 0.34375q0 0.34375 -0.28125 0.609375q-0.265625 0.265625 -0.6875 0.265625q-0.375 0 -0.609375 -0.1875q-0.21875 -0.171875 -0.453125 -0.671875l-6.421875 -13.78125q-0.25 -0.515625 -0.25 -0.78125q0 -0.359375 0.296875 -0.65625q0.296875 -0.296875 0.703125 -0.296875q0.359375 0 0.578125 0.1875q0.234375 0.171875 0.484375 0.6875zm66.416016 0.84375l-6.40625 13.828125q-0.25 0.515625 -0.453125 0.671875q-0.25 0.21875 -0.609375 0.21875q-0.40625 0 -0.703125 -0.296875q-0.296875 -0.296875 -0.296875 -0.671875q0 -0.265625 0.234375 -0.765625l6.4375 -13.828125q0.234375 -0.515625 0.421875 -0.671875q0.265625 -0.203125 0.609375 -0.203125q0.421875 0 0.703125 0.296875q0.296875 0.28125 0.296875 0.65625q0 0.265625 -0.234375 0.765625zm5.595703 -0.84375l6.421875 13.78125q0.046875 0.109375 0.15625 0.5q0.0625 0.21875 0.0625 0.34375q0 0.34375 -0.28125 0.609375q-0.265625 0.265625 -0.6875 0.265625q-0.375 0 -0.609375 -0.1875q-0.21875 -0.171875 -0.453125 -0.671875l-6.421875 -13.78125q-0.25 -0.515625 -0.25 -0.78125q0 -0.359375 0.296875 -0.65625q0.296875 -0.296875 0.703125 -0.296875q0.359375 0 0.578125 0.1875q0.234375 0.171875 0.484375 0.6875zm42.41211 0.84375l-6.40625 13.828125q-0.25 0.515625 -0.453125 0.671875q-0.25 0.21875 -0.609375 0.21875q-0.40625 0 -0.703125 -0.296875q-0.296875 -0.296875 -0.296875 -0.671875q0 -0.265625 0.234375 -0.765625l6.4375 -13.828125q0.234375 -0.515625 0.421875 -0.671875q0.265625 -0.203125 0.609375 -0.203125q0.421875 0 0.703125 0.296875q0.296875 0.28125 0.296875 0.65625q0 0.265625 -0.234375 0.765625zm5.595703 -0.84375l6.421875 13.78125q0.046875 0.109375 0.15625 0.5q0.0625 0.21875 0.0625 0.34375q0 0.34375 -0.28125 0.609375q-0.265625 0.265625 -0.6875 0.265625q-0.375 0 -0.609375 -0.1875q-0.21875 -0.171875 -0.453125 -0.671875l-6.421875 -13.78125q-0.25 -0.515625 -0.25 -0.78125q0 -0.359375 0.296875 -0.65625q0.296875 -0.296875 0.703125 -0.296875q0.359375 0 0.578125 0.1875q0.234375 0.171875 0.484375 0.6875zm19.830078 19.250004l-11.0 0q-0.71875 0 -1.03125 -0.28125q-0.3125 -0.265625 -0.3125 -0.703125q0 -0.453125 0.3125 -0.734375q0.3125 -0.28125 1.03125 -0.28125l11.0 0q0.703125 0 1.015625 0.28125q0.3125 0.28125 0.3125 0.734375q0 0.4375 -0.3125 0.703125q-0.296875 0.28125 -1.015625 0.28125zm12.001953 0l-11.0 0q-0.71875 0 -1.03125 -0.28125q-0.3125 -0.265625 -0.3125 -0.703125q0 -0.453125 0.3125 -0.734375q0.3125 -0.28125 1.03125 -0.28125l11.0 0q0.703125 0 1.015625 0.28125q0.3125 0.28125 0.3125 0.734375q0 0.4375 -0.3125 0.703125q-0.296875 0.28125 -1.015625 0.28125zm24.003906 0l-11.0 0q-0.71875 0 -1.03125 -0.28125q-0.3125 -0.265625 -0.3125 -0.703125q0 -0.453125 0.3125 -0.734375q0.3125 -0.28125 1.03125 -0.28125l11.0 0q0.703125 0 1.015625 0.28125q0.3125 0.28125 0.3125 0.734375q0 0.4375 -0.3125 0.703125q-0.296875 0.28125 -1.015625 0.28125zm24.003906 0l-11.0 0q-0.71875 0 -1.03125 -0.28125q-0.3125 -0.265625 -0.3125 -0.703125q0 -0.453125 0.3125 -0.734375q0.3125 -0.28125 1.03125 -0.28125l11.0 0q0.703125 0 1.015625 0.28125q0.3125 0.28125 0.3125 0.734375q0 0.4375 -0.3125 0.703125q-0.296875 0.28125 -1.015625 0.28125zm24.003906 0l-11.0 0q-0.71875 0 -1.03125 -0.28125q-0.3125 -0.265625 -0.3125 -0.703125q0 -0.453125 0.3125 -0.734375q0.3125 -0.28125 1.03125 -0.28125l11.0 0q0.703125 0 1.015625 0.28125q0.3125 0.28125 0.3125 0.734375q0 0.4375 -0.3125 0.703125q-0.296875 0.28125 -1.015625 0.28125zm12.001953 0l-11.0 0q-0.71875 0 -1.03125 -0.28125q-0.3125 -0.265625 -0.3125 -0.703125q0 -0.453125 0.3125 -0.734375q0.3125 -0.28125 1.03125 -0.28125l11.0 0q0.703125 0 1.015625 0.28125q0.3125 0.28125 0.3125 0.734375q0 0.4375 -0.3125 0.703125q-0.296875 0.28125 -1.015625 0.28125zm48.007812 0l-11.0 0q-0.71875 0 -1.03125 -0.28125q-0.3125 -0.265625 -0.3125 -0.703125q0 -0.453125 0.3125 -0.734375q0.3125 -0.28125 1.03125 -0.28125l11.0 0q0.703125 0 1.015625 0.28125q0.3125 0.28125 0.3125 0.734375q0 0.4375 -0.3125 0.703125q-0.296875 0.28125 -1.015625 0.28125zm12.001953 0l-11.0 0q-0.71875 0 -1.03125 -0.28125q-0.3125 -0.265625 -0.3125 -0.703125q0 -0.453125 0.3125 -0.734375q0.3125 -0.28125 1.03125 -0.28125l11.0 0q0.703125 0 1.015625 0.28125q0.3125 0.28125 0.3125 0.734375q0 0.4375 -0.3125 0.703125q-0.296875 0.28125 -1.015625 0.28125zm7.470703 -16.718754l0 11.921875q0 1.03125 -0.046875 1.21875q-0.078125 0.296875 -0.359375 0.5q-0.265625 0.20312881 -0.59375 0.20312881q-0.34375 0 -0.609375 -0.20312881q-0.265625 -0.203125 -0.34375 -0.515625q-0.046875 -0.171875 -0.046875 -1.203125l0 -11.921875q0 -1.015625 0.046875 -1.21875q0.078125 -0.296875 0.34375 -0.5q0.265625 -0.203125 0.609375 -0.203125q0.328125 0 0.59375 0.203125q0.28125 0.203125 0.359375 0.515625q0.046875 0.1875 0.046875 1.203125zm24.003906 0l0 11.921875q0 1.03125 -0.046875 1.21875q-0.078125 0.296875 -0.359375 0.5q-0.265625 0.20312881 -0.59375 0.20312881q-0.34375 0 -0.609375 -0.20312881q-0.265625 -0.203125 -0.34375 -0.515625q-0.046875 -0.171875 -0.046875 -1.203125l0 -11.921875q0 -1.015625 0.046875 -1.21875q0.078125 -0.296875 0.34375 -0.5q0.265625 -0.203125 0.609375 -0.203125q0.328125 0 0.59375 0.203125q0.28125 0.203125 0.359375 0.515625q0.046875 0.1875 0.046875 1.203125zm28.535156 16.718754l-11.0 0q-0.71875 0 -1.03125 -0.28125q-0.3125 -0.265625 -0.3125 -0.703125q0 -0.453125 0.3125 -0.734375q0.3125 -0.28125 1.03125 -0.28125l11.0 0q0.703125 0 1.015625 0.28125q0.3125 0.28125 0.3125 0.734375q0 0.4375 -0.3125 0.703125q-0.296875 0.28125 -1.015625 0.28125zm12.001953 0l-11.0 0q-0.71875 0 -1.03125 -0.28125q-0.3125 -0.265625 -0.3125 -0.703125q0 -0.453125 0.3125 -0.734375q0.3125 -0.28125 1.03125 -0.28125l11.0 0q0.703125 0 1.015625 0.28125q0.3125 0.28125 0.3125 0.734375q0 0.4375 -0.3125 0.703125q-0.296875 0.28125 -1.015625 0.28125zm12.001953 0l-11.0 0q-0.71875 0 -1.03125 -0.28125q-0.3125 -0.265625 -0.3125 -0.703125q0 -0.453125 0.3125 -0.734375q0.3125 -0.28125 1.03125 -0.28125l11.0 0q0.703125 0 1.015625 0.28125q0.3125 0.28125 0.3125 0.734375q0 0.4375 -0.3125 0.703125q-0.296875 0.28125 -1.015625 0.28125zm7.470703 -16.718754l0 11.921875q0 1.03125 -0.046875 1.21875q-0.078125 0.296875 -0.359375 0.5q-0.265625 0.20312881 -0.59375 0.20312881q-0.34375 0 -0.609375 -0.20312881q-0.265625 -0.203125 -0.34375 -0.515625q-0.046875 -0.171875 -0.046875 -1.203125l0 -11.921875q0 -1.015625 0.046875 -1.21875q0.078125 -0.296875 0.34375 -0.5q0.265625 -0.203125 0.609375 -0.203125q0.328125 0 0.59375 0.203125q0.28125 0.203125 0.359375 0.515625q0.046875 0.1875 0.046875 1.203125zm24.003906 0l0 11.921875q0 1.03125 -0.046875 1.21875q-0.078125 0.296875 -0.359375 0.5q-0.265625 0.20312881 -0.59375 0.20312881q-0.34375 0 -0.609375 -0.20312881q-0.265625 -0.203125 -0.34375 -0.515625q-0.046875 -0.171875 -0.046875 -1.203125l0 -11.921875q0 -1.015625 0.046875 -1.21875q0.078125 -0.296875 0.34375 -0.5q0.265625 -0.203125 0.609375 -0.203125q0.328125 0 0.59375 0.203125q0.28125 0.203125 0.359375 0.515625q0.046875 0.1875 0.046875 1.203125z" fill-rule="nonzero"/><path fill="#23262e" d="m31.126953 81.170296l-6.40625 13.828125q-0.25 0.515625 -0.453125 0.671875q-0.25 0.21875 -0.609375 0.21875q-0.40625 0 -0.703125 -0.296875q-0.296875 -0.296875 -0.296875 -0.671875q0 -0.265625 0.234375 -0.765625l6.4375 -13.828125q0.234375 -0.515625 0.421875 -0.671875q0.265625 -0.203125 0.609375 -0.203125q0.421875 0 0.703125 0.296875q0.296875 0.28125 0.296875 0.65625q0 0.265625 -0.234375 0.765625zm24.003906 0l-6.40625 13.828125q-0.25 0.515625 -0.453125 0.671875q-0.25 0.21875 -0.609375 0.21875q-0.40625 0 -0.703125 -0.296875q-0.296875 -0.296875 -0.296875 -0.671875q0 -0.265625 0.234375 -0.765625l6.4375 -13.828125q0.234375 -0.515625 0.421875 -0.671875q0.265625 -0.203125 0.609375 -0.203125q0.421875 0 0.703125 0.296875q0.296875 0.28125 0.296875 0.65625q0 0.265625 -0.234375 0.765625zm48.007812 0l-6.40625 13.828125q-0.25 0.515625 -0.453125 0.671875q-0.25 0.21875 -0.609375 0.21875q-0.40625 0 -0.703125 -0.296875q-0.296875 -0.296875 -0.296875 -0.671875q0 -0.265625 0.234375 -0.765625l6.4375 -13.828125q0.234375 -0.515625 0.421875 -0.671875q0.265625 -0.203125 0.609375 -0.203125q0.421875 0 0.703125 0.296875q0.296875 0.28125 0.296875 0.65625q0 0.265625 -0.234375 0.765625zm25.425781 18.40625l-11.0 0q-0.71875 0 -1.03125 -0.28125q-0.3125 -0.265625 -0.3125 -0.703125q0 -0.453125 0.3125 -0.734375q0.3125 -0.28125 1.03125 -0.28125l11.0 0q0.703125 0 1.015625 0.28125q0.3125 0.28125 0.3125 0.734375q0 0.4375 -0.3125 0.703125q-0.296875 0.28125 -1.015625 0.28125zm16.175781 -19.25l6.421875 13.78125q0.046875 0.109375 0.15625 0.5q0.0625 0.21875 0.0625 0.34375q0 0.34375 -0.28125 0.609375q-0.265625 0.265625 -0.6875 0.265625q-0.375 0 -0.609375 -0.1875q-0.21875 -0.171875 -0.453125 -0.671875l-6.421875 -13.78125q-0.25 -0.515625 -0.25 -0.78125q0 -0.359375 0.296875 -0.65625q0.296875 -0.296875 0.703125 -0.296875q0.359375 0 0.578125 0.1875q0.234375 0.171875 0.484375 0.6875zm15.298828 2.53125l0 11.921875q0 1.03125 -0.046875 1.21875q-0.078125 0.296875 -0.359375 0.5q-0.265625 0.203125 -0.59375 0.203125q-0.34375 0 -0.609375 -0.203125q-0.265625 -0.203125 -0.34375 -0.515625q-0.046875 -0.171875 -0.046875 -1.203125l0 -11.921875q0 -1.015625 0.046875 -1.21875q0.078125 -0.296875 0.34375 -0.5q0.265625 -0.203125 0.609375 -0.203125q0.328125 0 0.59375 0.203125q0.28125 0.203125 0.359375 0.515625q0.046875 0.1875 0.046875 1.203125zm21.691406 -1.515625l2.578125 0l-0.640625 5.15625q-0.046875 0.421875 -0.21875 0.578125q-0.15625 0.140625 -0.421875 0.140625q-0.234375 0 -0.40625 -0.140625q-0.15625 -0.15625 -0.203125 -0.5625l-0.6875 -5.171875zm18.845703 18.234375l-11.0 0q-0.71875 0 -1.03125 -0.28125q-0.3125 -0.265625 -0.3125 -0.703125q0 -0.453125 0.3125 -0.734375q0.3125 -0.28125 1.03125 -0.28125l11.0 0q0.703125 0 1.015625 0.28125q0.3125 0.28125 0.3125 0.734375q0 0.4375 -0.3125 0.703125q-0.296875 0.28125 -1.015625 0.28125zm16.175781 -19.25l6.421875 13.78125q0.046875 0.109375 0.15625 0.5q0.0625 0.21875 0.0625 0.34375q0 0.34375 -0.28125 0.609375q-0.265625 0.265625 -0.6875 0.265625q-0.375 0 -0.609375 -0.1875q-0.21875 -0.171875 -0.453125 -0.671875l-6.421875 -13.78125q-0.25 -0.515625 -0.25 -0.78125q0 -0.359375 0.296875 -0.65625q0.296875 -0.296875 0.703125 -0.296875q0.359375 0 0.578125 0.1875q0.234375 0.171875 0.484375 0.6875zm15.298828 2.53125l0 11.921875q0 1.03125 -0.046875 1.21875q-0.078125 0.296875 -0.359375 0.5q-0.265625 0.203125 -0.59375 0.203125q-0.34375 0 -0.609375 -0.203125q-0.265625 -0.203125 -0.34375 -0.515625q-0.046875 -0.171875 -0.046875 -1.203125l0 -11.921875q0 -1.015625 0.046875 -1.21875q0.078125 -0.296875 0.34375 -0.5q0.265625 -0.203125 0.609375 -0.203125q0.328125 0 0.59375 0.203125q0.28125 0.203125 0.359375 0.515625q0.046875 0.1875 0.046875 1.203125zm21.691406 -1.515625l2.578125 0l-0.640625 5.15625q-0.046875 0.421875 -0.21875 0.578125q-0.15625 0.140625 -0.421875 0.140625q-0.234375 0 -0.40625 -0.140625q-0.15625 -0.15625 -0.203125 -0.5625l-0.6875 -5.171875zm18.845703 18.234375l-11.0 0q-0.71875 0 -1.03125 -0.28125q-0.3125 -0.265625 -0.3125 -0.703125q0 -0.453125 0.3125 -0.734375q0.3125 -0.28125 1.03125 -0.28125l11.0 0q0.703125 0 1.015625 0.28125q0.3125 0.28125 0.3125 0.734375q0 0.4375 -0.3125 0.703125q-0.296875 0.28125 -1.015625 0.28125zm16.175781 -19.25l6.421875 13.78125q0.046875 0.109375 0.15625 0.5q0.0625 0.21875 0.0625 0.34375q0 0.34375 -0.28125 0.609375q-0.265625 0.265625 -0.6875 0.265625q-0.375 0 -0.609375 -0.1875q-0.21875 -0.171875 -0.453125 -0.671875l-6.421875 -13.78125q-0.25 -0.515625 -0.25 -0.78125q0 -0.359375 0.296875 -0.65625q0.296875 -0.296875 0.703125 -0.296875q0.359375 0 0.578125 0.1875q0.234375 0.171875 0.484375 0.6875zm30.410156 0.84375l-6.40625 13.828125q-0.25 0.515625 -0.453125 0.671875q-0.25 0.21875 -0.609375 0.21875q-0.40625 0 -0.703125 -0.296875q-0.296875 -0.296875 -0.296875 -0.671875q0 -0.265625 0.234375 -0.765625l6.4375 -13.828125q0.234375 -0.515625 0.421875 -0.671875q0.265625 -0.203125 0.609375 -0.203125q0.421875 0 0.703125 0.296875q0.296875 0.28125 0.296875 0.65625q0 0.265625 -0.234375 0.765625zm25.425781 18.40625l-11.0 0q-0.71875 0 -1.03125 -0.28125q-0.3125 -0.265625 -0.3125 -0.703125q0 -0.453125 0.3125 -0.734375q0.3125 -0.28125 1.03125 -0.28125l11.0 0q0.703125 0 1.015625 0.28125q0.3125 0.28125 0.3125 0.734375q0 0.4375 -0.3125 0.703125q-0.296875 0.28125 -1.015625 0.28125zm16.175781 -19.25l6.421875 13.78125q0.046875 0.109375 0.15625 0.5q0.0625 0.21875 0.0625 0.34375q0 0.34375 -0.28125 0.609375q-0.265625 0.265625 -0.6875 0.265625q-0.375 0 -0.609375 -0.1875q-0.21875 -0.171875 -0.453125 -0.671875l-6.421875 -13.78125q-0.25 -0.515625 -0.25 -0.78125q0 -0.359375 0.296875 -0.65625q0.296875 -0.296875 0.703125 -0.296875q0.359375 0 0.578125 0.1875q0.234375 0.171875 0.484375 0.6875zm15.298828 2.53125l0 11.921875q0 1.03125 -0.046875 1.21875q-0.078125 0.296875 -0.359375 0.5q-0.265625 0.203125 -0.59375 0.203125q-0.34375 0 -0.609375 -0.203125q-0.265625 -0.203125 -0.34375 -0.515625q-0.046875 -0.171875 -0.046875 -1.203125l0 -11.921875q0 -1.015625 0.046875 -1.21875q0.078125 -0.296875 0.34375 -0.5q0.265625 -0.203125 0.609375 -0.203125q0.328125 0 0.59375 0.203125q0.28125 0.203125 0.359375 0.515625q0.046875 0.1875 0.046875 1.203125zm21.691406 -1.515625l2.578125 0l-0.640625 5.15625q-0.046875 0.421875 -0.21875 0.578125q-0.15625 0.140625 -0.421875 0.140625q-0.234375 0 -0.40625 -0.140625q-0.15625 -0.15625 -0.203125 -0.5625l-0.6875 -5.171875zm18.845703 18.234375l-11.0 0q-0.71875 0 -1.03125 -0.28125q-0.3125 -0.265625 -0.3125 -0.703125q0 -0.453125 0.3125 -0.734375q0.3125 -0.28125 1.03125 -0.28125l11.0 0q0.703125 0 1.015625 0.28125q0.3125 0.28125 0.3125 0.734375q0 0.4375 -0.3125 0.703125q-0.296875 0.28125 -1.015625 0.28125zm12.001953 0l-11.0 0q-0.71875 0 -1.03125 -0.28125q-0.3125 -0.265625 -0.3125 -0.703125q0 -0.453125 0.3125 -0.734375q0.3125 -0.28125 1.03125 -0.28125l11.0 0q0.703125 0 1.015625 0.28125q0.3125 0.28125 0.3125 0.734375q0 0.4375 -0.3125 0.703125q-0.296875 0.28125 -1.015625 0.28125zm7.470703 -16.71875l0 11.921875q0 1.03125 -0.046875 1.21875q-0.078125 0.296875 -0.359375 0.5q-0.265625 0.203125 -0.59375 0.203125q-0.34375 0 -0.609375 -0.203125q-0.265625 -0.203125 -0.34375 -0.515625q-0.046875 -0.171875 -0.046875 -1.203125l0 -11.921875q0 -1.015625 0.046875 -1.21875q0.078125 -0.296875 0.34375 -0.5q0.265625 -0.203125 0.609375 -0.203125q0.328125 0 0.59375 0.203125q0.28125 0.203125 0.359375 0.515625q0.046875 0.1875 0.046875 1.203125zm56.71289 -2.53125l6.421875 13.78125q0.046875 0.109375 0.15625 0.5q0.0625 0.21875 0.0625 0.34375q0 0.34375 -0.28125 0.609375q-0.265625 0.265625 -0.6875 0.265625q-0.375 0 -0.609375 -0.1875q-0.21875 -0.171875 -0.453125 -0.671875l-6.421875 -13.78125q-0.25 -0.515625 -0.25 -0.78125q0 -0.359375 0.296875 -0.65625q0.296875 -0.296875 0.703125 -0.296875q0.359375 0 0.578125 0.1875q0.234375 0.171875 0.484375 0.6875zm24.003906 0l6.421875 13.78125q0.046875 0.109375 0.15625 0.5q0.0625 0.21875 0.0625 0.34375q0 0.34375 -0.28125 0.609375q-0.265625 0.265625 -0.6875 0.265625q-0.375 0 -0.609375 -0.1875q-0.21875 -0.171875 -0.453125 -0.671875l-6.421875 -13.78125q-0.25 -0.515625 -0.25 -0.78125q0 -0.359375 0.296875 -0.65625q0.296875 -0.296875 0.703125 -0.296875q0.359375 0 0.578125 0.1875q0.234375 0.171875 0.484375 0.6875zm42.41211 0.84375l-6.40625 13.828125q-0.25 0.515625 -0.453125 0.671875q-0.25 0.21875 -0.609375 0.21875q-0.40625 0 -0.703125 -0.296875q-0.296875 -0.296875 -0.296875 -0.671875q0 -0.265625 0.234375 -0.765625l6.4375 -13.828125q0.234375 -0.515625 0.421875 -0.671875q0.265625 -0.203125 0.609375 -0.203125q0.421875 0 0.703125 0.296875q0.296875 0.28125 0.296875 0.65625q0 0.265625 -0.234375 0.765625zm24.003906 0l-6.40625 13.828125q-0.25 0.515625 -0.453125 0.671875q-0.25 0.21875 -0.609375 0.21875q-0.40625 0 -0.703125 -0.296875q-0.296875 -0.296875 -0.296875 -0.671875q0 -0.265625 0.234375 -0.765625l6.4375 -13.828125q0.234375 -0.515625 0.421875 -0.671875q0.265625 -0.203125 0.609375 -0.203125q0.421875 0 0.703125 0.296875q0.296875 0.28125 0.296875 0.65625q0 0.265625 -0.234375 0.765625zm13.423828 18.40625l-11.0 0q-0.71875 0 -1.03125 -0.28125q-0.3125 -0.265625 -0.3125 -0.703125q0 -0.453125 0.3125 -0.734375q0.3125 -0.28125 1.03125 -0.28125l11.0 0q0.703125 0 1.015625 0.28125q0.3125 0.28125 0.3125 0.734375q0 0.4375 -0.3125 0.703125q-0.296875 0.28125 -1.015625 0.28125zm10.580078 -18.40625l-6.40625 13.828125q-0.25 0.515625 -0.453125 0.671875q-0.25 0.21875 -0.609375 0.21875q-0.40625 0 -0.703125 -0.296875q-0.296875 -0.296875 -0.296875 -0.671875q0 -0.265625 0.234375 -0.765625l6.4375 -13.828125q0.234375 -0.515625 0.421875 -0.671875q0.265625 -0.203125 0.609375 -0.203125q0.421875 0 0.703125 0.296875q0.296875 0.28125 0.296875 0.65625q0 0.265625 -0.234375 0.765625zm24.003906 0l-6.40625 13.828125q-0.25 0.515625 -0.453125 0.671875q-0.25 0.21875 -0.609375 0.21875q-0.40625 0 -0.703125 -0.296875q-0.296875 -0.296875 -0.296875 -0.671875q0 -0.265625 0.234375 -0.765625l6.4375 -13.828125q0.234375 -0.515625 0.421875 -0.671875q0.265625 -0.203125 0.609375 -0.203125q0.421875 0 0.703125 0.296875q0.296875 0.28125 0.296875 0.65625q0 0.265625 -0.234375 0.765625zm25.425781 18.40625l-11.0 0q-0.71875 0 -1.03125 -0.28125q-0.3125 -0.265625 -0.3125 -0.703125q0 -0.453125 0.3125 -0.734375q0.3125 -0.28125 1.03125 -0.28125l11.0 0q0.703125 0 1.015625 0.28125q0.3125 0.28125 0.3125 0.734375q0 0.4375 -0.3125 0.703125q-0.296875 0.28125 -1.015625 0.28125zm5.767578 -19.09375l2.203125 1.796875q0.390625 0.3125 0.390625 0.625q0 0.265625 -0.1875 0.453125q-0.1875 0.1875 -0.46875 0.1875q-0.21875 0 -0.546875 -0.265625l-2.203125 -1.78125q-0.390625 -0.3125 -0.390625 -0.625q0 -0.28125 0.1875 -0.453125q0.1875 -0.1875 0.453125 -0.1875q0.234375 0 0.5625 0.25zm25.707031 2.375l0 11.921875q0 1.03125 -0.046875 1.21875q-0.078125 0.296875 -0.359375 0.5q-0.265625 0.203125 -0.59375 0.203125q-0.34375 0 -0.609375 -0.203125q-0.265625 -0.203125 -0.34375 -0.515625q-0.046875 -0.171875 -0.046875 -1.203125l0 -11.921875q0 -1.015625 0.046875 -1.21875q0.078125 -0.296875 0.34375 -0.5q0.265625 -0.203125 0.609375 -0.203125q0.328125 0 0.59375 0.203125q0.28125 0.203125 0.359375 0.515625q0.046875 0.1875 0.046875 1.203125zm21.691406 -1.515625l2.578125 0l-0.640625 5.15625q-0.046875 0.421875 -0.21875 0.578125q-0.15625 0.140625 -0.421875 0.140625q-0.234375 0 -0.40625 -0.140625q-0.15625 -0.15625 -0.203125 -0.5625l-0.6875 -5.171875zm18.845703 18.234375l-11.0 0q-0.71875 0 -1.03125 -0.28125q-0.3125 -0.265625 -0.3125 -0.703125q0 -0.453125 0.3125 -0.734375q0.3125 -0.28125 1.03125 -0.28125l11.0 0q0.703125 0 1.015625 0.28125q0.3125 0.28125 0.3125 0.734375q0 0.4375 -0.3125 0.703125q-0.296875 0.28125 -1.015625 0.28125zm16.175781 -19.25l6.421875 13.78125q0.046875 0.109375 0.15625 0.5q0.0625 0.21875 0.0625 0.34375q0 0.34375 -0.28125 0.609375q-0.265625 0.265625 -0.6875 0.265625q-0.375 0 -0.609375 -0.1875q-0.21875 -0.171875 -0.453125 -0.671875l-6.421875 -13.78125q-0.25 -0.515625 -0.25 -0.78125q0 -0.359375 0.296875 -0.65625q0.296875 -0.296875 0.703125 -0.296875q0.359375 0 0.578125 0.1875q0.234375 0.171875 0.484375 0.6875zm30.410156 0.84375l-6.40625 13.828125q-0.25 0.515625 -0.453125 0.671875q-0.25 0.21875 -0.609375 0.21875q-0.40625 0 -0.703125 -0.296875q-0.296875 -0.296875 -0.296875 -0.671875q0 -0.265625 0.234375 -0.765625l6.4375 -13.828125q0.234375 -0.515625 0.421875 -0.671875q0.265625 -0.203125 0.609375 -0.203125q0.421875 0 0.703125 0.296875q0.296875 0.28125 0.296875 0.65625q0 0.265625 -0.234375 0.765625zm25.425781 18.40625l-11.0 0q-0.71875 0 -1.03125 -0.28125q-0.3125 -0.265625 -0.3125 -0.703125q0 -0.453125 0.3125 -0.734375q0.3125 -0.28125 1.03125 -0.28125l11.0 0q0.703125 0 1.015625 0.28125q0.3125 0.28125 0.3125 0.734375q0 0.4375 -0.3125 0.703125q-0.296875 0.28125 -1.015625 0.28125zm5.767578 -19.09375l2.203125 1.796875q0.390625 0.3125 0.390625 0.625q0 0.265625 -0.1875 0.453125q-0.1875 0.1875 -0.46875 0.1875q-0.21875 0 -0.546875 -0.265625l-2.203125 -1.78125q-0.390625 -0.3125 -0.390625 -0.625q0 -0.28125 0.1875 -0.453125q0.1875 -0.1875 0.453125 -0.1875q0.234375 0 0.5625 0.25zm25.707031 2.375l0 11.921875q0 1.03125 -0.046875 1.21875q-0.078125 0.296875 -0.359375 0.5q-0.265625 0.203125 -0.59375 0.203125q-0.34375 0 -0.609375 -0.203125q-0.265625 -0.203125 -0.34375 -0.515625q-0.046875 -0.171875 -0.046875 -1.203125l0 -11.921875q0 -1.015625 0.046875 -1.21875q0.078125 -0.296875 0.34375 -0.5q0.265625 -0.203125 0.609375 -0.203125q0.328125 0 0.59375 0.203125q0.28125 0.203125 0.359375 0.515625q0.046875 0.1875 0.046875 1.203125zm15.111328 -1.6875l-6.40625 13.828125q-0.25 0.515625 -0.453125 0.671875q-0.25 0.21875 -0.609375 0.21875q-0.40625 0 -0.703125 -0.296875q-0.296875 -0.296875 -0.296875 -0.671875q0 -0.265625 0.234375 -0.765625l6.4375 -13.828125q0.234375 -0.515625 0.421875 -0.671875q0.265625 -0.203125 0.609375 -0.203125q0.421875 0 0.703125 0.296875q0.296875 0.28125 0.296875 0.65625q0 0.265625 -0.234375 0.765625zm25.425781 18.40625l-11.0 0q-0.71875 0 -1.03125 -0.28125q-0.3125 -0.265625 -0.3125 -0.703125q0 -0.453125 0.3125 -0.734375q0.3125 -0.28125 1.03125 -0.28125l11.0 0q0.703125 0 1.015625 0.28125q0.3125 0.28125 0.3125 0.734375q0 0.4375 -0.3125 0.703125q-0.296875 0.28125 -1.015625 0.28125zm16.175781 -19.25l6.421875 13.78125q0.046875 0.109375 0.15625 0.5q0.0625 0.21875 0.0625 0.34375q0 0.34375 -0.28125 0.609375q-0.265625 0.265625 -0.6875 0.265625q-0.375 0 -0.609375 -0.1875q-0.21875 -0.171875 -0.453125 -0.671875l-6.421875 -13.78125q-0.25 -0.515625 -0.25 -0.78125q0 -0.359375 0.296875 -0.65625q0.296875 -0.296875 0.703125 -0.296875q0.359375 0 0.578125 0.1875q0.234375 0.171875 0.484375 0.6875zm27.300781 2.53125l0 11.921875q0 1.03125 -0.046875 1.21875q-0.078125 0.296875 -0.359375 0.5q-0.265625 0.203125 -0.59375 0.203125q-0.34375 0 -0.609375 -0.203125q-0.265625 -0.203125 -0.34375 -0.515625q-0.046875 -0.171875 -0.046875 -1.203125l0 -11.921875q0 -1.015625 0.046875 -1.21875q0.078125 -0.296875 0.34375 -0.5q0.265625 -0.203125 0.609375 -0.203125q0.328125 0 0.59375 0.203125q0.28125 0.203125 0.359375 0.515625q0.046875 0.1875 0.046875 1.203125z" fill-rule="nonzero"/><path fill="#23262e" d="m19.125 113.74172l-6.40625 13.828125q-0.25 0.5156174 -0.453125 0.6718674q-0.25 0.21875 -0.609375 0.21875q-0.40625 0 -0.703125 -0.296875q-0.296875 -0.29686737 -0.296875 -0.6718674q0 -0.265625 0.234375 -0.765625l6.4375 -13.828125q0.234375 -0.515625 0.421875 -0.671875q0.265625 -0.203125 0.609375 -0.203125q0.421875 0 0.703125 0.296875q0.296875 0.28125 0.296875 0.65625q0 0.265625 -0.234375 0.765625zm24.003906 0l-6.40625 13.828125q-0.25 0.5156174 -0.453125 0.6718674q-0.25 0.21875 -0.609375 0.21875q-0.40625 0 -0.703125 -0.296875q-0.296875 -0.29686737 -0.296875 -0.6718674q0 -0.265625 0.234375 -0.765625l6.4375 -13.828125q0.234375 -0.515625 0.421875 -0.671875q0.265625 -0.203125 0.609375 -0.203125q0.421875 0 0.703125 0.296875q0.296875 0.28125 0.296875 0.65625q0 0.265625 -0.234375 0.765625zm13.423828 18.406242l-11.0 0q-0.71875 0 -1.03125 -0.28125q-0.3125 -0.265625 -0.3125 -0.703125q0 -0.453125 0.3125 -0.734375q0.3125 -0.28125 1.03125 -0.28125l11.0 0q0.703125 0 1.015625 0.28125q0.3125 0.28125 0.3125 0.734375q0 0.4375 -0.3125 0.703125q-0.296875 0.28125 -1.015625 0.28125zm12.001953 0l-11.0 0q-0.71875 0 -1.03125 -0.28125q-0.3125 -0.265625 -0.3125 -0.703125q0 -0.453125 0.3125 -0.734375q0.3125 -0.28125 1.03125 -0.28125l11.0 0q0.703125 0 1.015625 0.28125q0.3125 0.28125 0.3125 0.734375q0 0.4375 -0.3125 0.703125q-0.296875 0.28125 -1.015625 0.28125zm19.472656 -16.718742l0 11.921875q0 1.0312424 -0.046875 1.2187424q-0.078125 0.296875 -0.359375 0.5q-0.265625 0.203125 -0.59375 0.203125q-0.34375 0 -0.609375 -0.203125q-0.265625 -0.203125 -0.34375 -0.515625q-0.046875 -0.171875 -0.046875 -1.2031174l0 -11.921875q0 -1.015625 0.046875 -1.21875q0.078125 -0.296875 0.34375 -0.5q0.265625 -0.203125 0.609375 -0.203125q0.328125 0 0.59375 0.203125q0.28125 0.203125 0.359375 0.515625q0.046875 0.1875 0.046875 1.203125zm22.269531 5.859375q0 -1.71875 0.5625 -3.46875q0.421875 -1.28125 1.3125 -2.859375q0.625 -1.140625 0.921875 -1.390625q0.3125 -0.265625 0.6875 -0.265625q0.421875 0 0.71875 0.296875q0.296875 0.296875 0.296875 0.703125q0 0.28125 -0.234375 0.671875q-1.0625 1.734375 -1.546875 3.25q-0.484375 1.5 -0.484375 3.0625q0 1.5625 0.484375 3.078125q0.484375 1.5 1.546875 3.234375q0.234375 0.390625 0.234375 0.6718674q0 0.421875 -0.296875 0.703125q-0.296875 0.296875 -0.71875 0.296875q-0.359375 0 -0.640625 -0.234375q-0.390625 -0.34375 -1.03125 -1.5312424q-0.9375 -1.734375 -1.265625 -2.859375q-0.546875 -1.71875 -0.546875 -3.359375zm18.267578 10.859367l-11.0 0q-0.71875 0 -1.03125 -0.28125q-0.3125 -0.265625 -0.3125 -0.703125q0 -0.453125 0.3125 -0.734375q0.3125 -0.28125 1.03125 -0.28125l11.0 0q0.703125 0 1.015625 0.28125q0.3125 0.28125 0.3125 0.734375q0 0.4375 -0.3125 0.703125q-0.296875 0.28125 -1.015625 0.28125zm7.314453 -10.859367q0 1.703125 -0.5625 3.46875q-0.421875 1.28125 -1.3125 2.859375q-0.625 1.1249924 -0.9375 1.3906174q-0.296875 0.265625 -0.671875 0.265625q-0.421875 0 -0.71875 -0.296875q-0.296875 -0.28125 -0.296875 -0.703125q0 -0.28124237 0.234375 -0.6718674q1.0625 -1.734375 1.546875 -3.234375q0.484375 -1.515625 0.484375 -3.078125q0 -1.5625 -0.484375 -3.0625q-0.484375 -1.515625 -1.546875 -3.25q-0.234375 -0.390625 -0.234375 -0.671875q0 -0.40625 0.296875 -0.703125q0.296875 -0.296875 0.71875 -0.296875q0.359375 0 0.640625 0.234375q0.390625 0.328125 1.03125 1.53125q0.9375 1.734375 1.265625 2.84375q0.546875 1.734375 0.546875 3.375zm24.160156 -5.859375l0 11.921875q0 1.0312424 -0.046875 1.2187424q-0.078125 0.296875 -0.359375 0.5q-0.265625 0.203125 -0.59375 0.203125q-0.34375 0 -0.609375 -0.203125q-0.265625 -0.203125 -0.34375 -0.515625q-0.046875 -0.171875 -0.046875 -1.2031174l0 -11.921875q0 -1.015625 0.046875 -1.21875q0.078125 -0.296875 0.34375 -0.5q0.265625 -0.203125 0.609375 -0.203125q0.328125 0 0.59375 0.203125q0.28125 0.203125 0.359375 0.515625q0.046875 0.1875 0.046875 1.203125zm24.003906 0l0 11.921875q0 1.0312424 -0.046875 1.2187424q-0.078125 0.296875 -0.359375 0.5q-0.265625 0.203125 -0.59375 0.203125q-0.34375 0 -0.609375 -0.203125q-0.265625 -0.203125 -0.34375 -0.515625q-0.046875 -0.171875 -0.046875 -1.2031174l0 -11.921875q0 -1.015625 0.046875 -1.21875q0.078125 -0.296875 0.34375 -0.5q0.265625 -0.203125 0.609375 -0.203125q0.328125 0 0.59375 0.203125q0.28125 0.203125 0.359375 0.515625q0.046875 0.1875 0.046875 1.203125zm24.003906 0l0 11.921875q0 1.0312424 -0.046875 1.2187424q-0.078125 0.296875 -0.359375 0.5q-0.265625 0.203125 -0.59375 0.203125q-0.34375 0 -0.609375 -0.203125q-0.265625 -0.203125 -0.34375 -0.515625q-0.046875 -0.171875 -0.046875 -1.2031174l0 -11.921875q0 -1.015625 0.046875 -1.21875q0.078125 -0.296875 0.34375 -0.5q0.265625 -0.203125 0.609375 -0.203125q0.328125 0 0.59375 0.203125q0.28125 0.203125 0.359375 0.515625q0.046875 0.1875 0.046875 1.203125zm24.003906 0l0 11.921875q0 1.0312424 -0.046875 1.2187424q-0.078125 0.296875 -0.359375 0.5q-0.265625 0.203125 -0.59375 0.203125q-0.34375 0 -0.609375 -0.203125q-0.265625 -0.203125 -0.34375 -0.515625q-0.046875 -0.171875 -0.046875 -1.2031174l0 -11.921875q0 -1.015625 0.046875 -1.21875q0.078125 -0.296875 0.34375 -0.5q0.265625 -0.203125 0.609375 -0.203125q0.328125 0 0.59375 0.203125q0.28125 0.203125 0.359375 0.515625q0.046875 0.1875 0.046875 1.203125zm24.003906 0l0 11.921875q0 1.0312424 -0.046875 1.2187424q-0.078125 0.296875 -0.359375 0.5q-0.265625 0.203125 -0.59375 0.203125q-0.34375 0 -0.609375 -0.203125q-0.265625 -0.203125 -0.34375 -0.515625q-0.046875 -0.171875 -0.046875 -1.2031174l0 -11.921875q0 -1.015625 0.046875 -1.21875q0.078125 -0.296875 0.34375 -0.5q0.265625 -0.203125 0.609375 -0.203125q0.328125 0 0.59375 0.203125q0.28125 0.203125 0.359375 0.515625q0.046875 0.1875 0.046875 1.203125zm24.003906 0l0 11.921875q0 1.0312424 -0.046875 1.2187424q-0.078125 0.296875 -0.359375 0.5q-0.265625 0.203125 -0.59375 0.203125q-0.34375 0 -0.609375 -0.203125q-0.265625 -0.203125 -0.34375 -0.515625q-0.046875 -0.171875 -0.046875 -1.2031174l0 -11.921875q0 -1.015625 0.046875 -1.21875q0.078125 -0.296875 0.34375 -0.5q0.265625 -0.203125 0.609375 -0.203125q0.328125 0 0.59375 0.203125q0.28125 0.203125 0.359375 0.515625q0.046875 0.1875 0.046875 1.203125zm24.003906 0l0 11.921875q0 1.0312424 -0.046875 1.2187424q-0.078125 0.296875 -0.359375 0.5q-0.265625 0.203125 -0.59375 0.203125q-0.34375 0 -0.609375 -0.203125q-0.265625 -0.203125 -0.34375 -0.515625q-0.046875 -0.171875 -0.046875 -1.2031174l0 -11.921875q0 -1.015625 0.046875 -1.21875q0.078125 -0.296875 0.34375 -0.5q0.265625 -0.203125 0.609375 -0.203125q0.328125 0 0.59375 0.203125q0.28125 0.203125 0.359375 0.515625q0.046875 0.1875 0.046875 1.203125zm22.269531 5.859375q0 -1.71875 0.5625 -3.46875q0.421875 -1.28125 1.3125 -2.859375q0.625 -1.140625 0.921875 -1.390625q0.3125 -0.265625 0.6875 -0.265625q0.421875 0 0.71875 0.296875q0.296875 0.296875 0.296875 0.703125q0 0.28125 -0.234375 0.671875q-1.0625 1.734375 -1.546875 3.25q-0.484375 1.5 -0.484375 3.0625q0 1.5625 0.484375 3.078125q0.484375 1.5 1.546875 3.234375q0.234375 0.390625 0.234375 0.6718674q0 0.421875 -0.296875 0.703125q-0.296875 0.296875 -0.71875 0.296875q-0.359375 0 -0.640625 -0.234375q-0.390625 -0.34375 -1.03125 -1.5312424q-0.9375 -1.734375 -1.265625 -2.859375q-0.546875 -1.71875 -0.546875 -3.359375zm18.267578 10.859367l-11.0 0q-0.71875 0 -1.03125 -0.28125q-0.3125 -0.265625 -0.3125 -0.703125q0 -0.453125 0.3125 -0.734375q0.3125 -0.28125 1.03125 -0.28125l11.0 0q0.703125 0 1.015625 0.28125q0.3125 0.28125 0.3125 0.734375q0 0.4375 -0.3125 0.703125q-0.296875 0.28125 -1.015625 0.28125zm7.314453 -10.859367q0 1.703125 -0.5625 3.46875q-0.421875 1.28125 -1.3125 2.859375q-0.625 1.1249924 -0.9375 1.3906174q-0.296875 0.265625 -0.671875 0.265625q-0.421875 0 -0.71875 -0.296875q-0.296875 -0.28125 -0.296875 -0.703125q0 -0.28124237 0.234375 -0.6718674q1.0625 -1.734375 1.546875 -3.234375q0.484375 -1.515625 0.484375 -3.078125q0 -1.5625 -0.484375 -3.0625q-0.484375 -1.515625 -1.546875 -3.25q-0.234375 -0.390625 -0.234375 -0.671875q0 -0.40625 0.296875 -0.703125q0.296875 -0.296875 0.71875 -0.296875q0.359375 0 0.640625 0.234375q0.390625 0.328125 1.03125 1.53125q0.9375 1.734375 1.265625 2.84375q0.546875 1.734375 0.546875 3.375zm24.160156 -5.859375l0 11.921875q0 1.0312424 -0.046875 1.2187424q-0.078125 0.296875 -0.359375 0.5q-0.265625 0.203125 -0.59375 0.203125q-0.34375 0 -0.609375 -0.203125q-0.265625 -0.203125 -0.34375 -0.515625q-0.046875 -0.171875 -0.046875 -1.2031174l0 -11.921875q0 -1.015625 0.046875 -1.21875q0.078125 -0.296875 0.34375 -0.5q0.265625 -0.203125 0.609375 -0.203125q0.328125 0 0.59375 0.203125q0.28125 0.203125 0.359375 0.515625q0.046875 0.1875 0.046875 1.203125zm24.003906 0l0 11.921875q0 1.0312424 -0.046875 1.2187424q-0.078125 0.296875 -0.359375 0.5q-0.265625 0.203125 -0.59375 0.203125q-0.34375 0 -0.609375 -0.203125q-0.265625 -0.203125 -0.34375 -0.515625q-0.046875 -0.171875 -0.046875 -1.2031174l0 -11.921875q0 -1.015625 0.046875 -1.21875q0.078125 -0.296875 0.34375 -0.5q0.265625 -0.203125 0.609375 -0.203125q0.328125 0 0.59375 0.203125q0.28125 0.203125 0.359375 0.515625q0.046875 0.1875 0.046875 1.203125zm63.11914 -1.6875l-6.40625 13.828125q-0.25 0.5156174 -0.453125 0.6718674q-0.25 0.21875 -0.609375 0.21875q-0.40625 0 -0.703125 -0.296875q-0.296875 -0.29686737 -0.296875 -0.6718674q0 -0.265625 0.234375 -0.765625l6.4375 -13.828125q0.234375 -0.515625 0.421875 -0.671875q0.265625 -0.203125 0.609375 -0.203125q0.421875 0 0.703125 0.296875q0.296875 0.28125 0.296875 0.65625q0 0.265625 -0.234375 0.765625zm5.595703 -0.84375l6.421875 13.78125q0.046875 0.109375 0.15625 0.5q0.0625 0.21875 0.0625 0.34375q0 0.34375 -0.28125 0.6093674q-0.265625 0.265625 -0.6875 0.265625q-0.375 0 -0.609375 -0.1875q-0.21875 -0.171875 -0.453125 -0.6718674l-6.421875 -13.78125q-0.25 -0.515625 -0.25 -0.78125q0 -0.359375 0.296875 -0.65625q0.296875 -0.296875 0.703125 -0.296875q0.359375 0 0.578125 0.1875q0.234375 0.171875 0.484375 0.6875zm19.830078 19.249992l-11.0 0q-0.71875 0 -1.03125 -0.28125q-0.3125 -0.265625 -0.3125 -0.703125q0 -0.453125 0.3125 -0.734375q0.3125 -0.28125 1.03125 -0.28125l11.0 0q0.703125 0 1.015625 0.28125q0.3125 0.28125 0.3125 0.734375q0 0.4375 -0.3125 0.703125q-0.296875 0.28125 -1.015625 0.28125zm10.580078 -18.406242l-6.40625 13.828125q-0.25 0.5156174 -0.453125 0.6718674q-0.25 0.21875 -0.609375 0.21875q-0.40625 0 -0.703125 -0.296875q-0.296875 -0.29686737 -0.296875 -0.6718674q0 -0.265625 0.234375 -0.765625l6.4375 -13.828125q0.234375 -0.515625 0.421875 -0.671875q0.265625 -0.203125 0.609375 -0.203125q0.421875 0 0.703125 0.296875q0.296875 0.28125 0.296875 0.65625q0 0.265625 -0.234375 0.765625zm24.003906 0l-6.40625 13.828125q-0.25 0.5156174 -0.453125 0.6718674q-0.25 0.21875 -0.609375 0.21875q-0.40625 0 -0.703125 -0.296875q-0.296875 -0.29686737 -0.296875 -0.6718674q0 -0.265625 0.234375 -0.765625l6.4375 -13.828125q0.234375 -0.515625 0.421875 -0.671875q0.265625 -0.203125 0.609375 -0.203125q0.421875 0 0.703125 0.296875q0.296875 0.28125 0.296875 0.65625q0 0.265625 -0.234375 0.765625zm24.003906 0l-6.40625 13.828125q-0.25 0.5156174 -0.453125 0.6718674q-0.25 0.21875 -0.609375 0.21875q-0.40625 0 -0.703125 -0.296875q-0.296875 -0.29686737 -0.296875 -0.6718674q0 -0.265625 0.234375 -0.765625l6.4375 -13.828125q0.234375 -0.515625 0.421875 -0.671875q0.265625 -0.203125 0.609375 -0.203125q0.421875 0 0.703125 0.296875q0.296875 0.28125 0.296875 0.65625q0 0.265625 -0.234375 0.765625zm25.425781 18.406242l-11.0 0q-0.71875 0 -1.03125 -0.28125q-0.3125 -0.265625 -0.3125 -0.703125q0 -0.453125 0.3125 -0.734375q0.3125 -0.28125 1.03125 -0.28125l11.0 0q0.703125 0 1.015625 0.28125q0.3125 0.28125 0.3125 0.734375q0 0.4375 -0.3125 0.703125q-0.296875 0.28125 -1.015625 0.28125zm12.001953 0l-11.0 0q-0.71875 0 -1.03125 -0.28125q-0.3125 -0.265625 -0.3125 -0.703125q0 -0.453125 0.3125 -0.734375q0.3125 -0.28125 1.03125 -0.28125l11.0 0q0.703125 0 1.015625 0.28125q0.3125 0.28125 0.3125 0.734375q0 0.4375 -0.3125 0.703125q-0.296875 0.28125 -1.015625 0.28125zm34.583984 -18.406242l-6.40625 13.828125q-0.25 0.5156174 -0.453125 0.6718674q-0.25 0.21875 -0.609375 0.21875q-0.40625 0 -0.703125 -0.296875q-0.296875 -0.29686737 -0.296875 -0.6718674q0 -0.265625 0.234375 -0.765625l6.4375 -13.828125q0.234375 -0.515625 0.421875 -0.671875q0.265625 -0.203125 0.609375 -0.203125q0.421875 0 0.703125 0.296875q0.296875 0.28125 0.296875 0.65625q0 0.265625 -0.234375 0.765625zm19.160156 7.546875q0 -1.71875 0.5625 -3.46875q0.421875 -1.28125 1.3125 -2.859375q0.625 -1.140625 0.921875 -1.390625q0.3125 -0.265625 0.6875 -0.265625q0.421875 0 0.71875 0.296875q0.296875 0.296875 0.296875 0.703125q0 0.28125 -0.234375 0.671875q-1.0625 1.734375 -1.546875 3.25q-0.484375 1.5 -0.484375 3.0625q0 1.5625 0.484375 3.078125q0.484375 1.5 1.546875 3.234375q0.234375 0.390625 0.234375 0.6718674q0 0.421875 -0.296875 0.703125q-0.296875 0.296875 -0.71875 0.296875q-0.359375 0 -0.640625 -0.234375q-0.390625 -0.34375 -1.03125 -1.5312424q-0.9375 -1.734375 -1.265625 -2.859375q-0.546875 -1.71875 -0.546875 -3.359375zm18.267578 10.859367l-11.0 0q-0.71875 0 -1.03125 -0.28125q-0.3125 -0.265625 -0.3125 -0.703125q0 -0.453125 0.3125 -0.734375q0.3125 -0.28125 1.03125 -0.28125l11.0 0q0.703125 0 1.015625 0.28125q0.3125 0.28125 0.3125 0.734375q0 0.4375 -0.3125 0.703125q-0.296875 0.28125 -1.015625 0.28125zm7.470703 -16.718742l0 11.921875q0 1.0312424 -0.046875 1.2187424q-0.078125 0.296875 -0.359375 0.5q-0.265625 0.203125 -0.59375 0.203125q-0.34375 0 -0.609375 -0.203125q-0.265625 -0.203125 -0.34375 -0.515625q-0.046875 -0.171875 -0.046875 -1.2031174l0 -11.921875q0 -1.015625 0.046875 -1.21875q0.078125 -0.296875 0.34375 -0.5q0.265625 -0.203125 0.609375 -0.203125q0.328125 0 0.59375 0.203125q0.28125 0.203125 0.359375 0.515625q0.046875 0.1875 0.046875 1.203125zm24.003906 0l0 11.921875q0 1.0312424 -0.046875 1.2187424q-0.078125 0.296875 -0.359375 0.5q-0.265625 0.203125 -0.59375 0.203125q-0.34375 0 -0.609375 -0.203125q-0.265625 -0.203125 -0.34375 -0.515625q-0.046875 -0.171875 -0.046875 -1.2031174l0 -11.921875q0 -1.015625 0.046875 -1.21875q0.078125 -0.296875 0.34375 -0.5q0.265625 -0.203125 0.609375 -0.203125q0.328125 0 0.59375 0.203125q0.28125 0.203125 0.359375 0.515625q0.046875 0.1875 0.046875 1.203125zm24.003906 0l0 11.921875q0 1.0312424 -0.046875 1.2187424q-0.078125 0.296875 -0.359375 0.5q-0.265625 0.203125 -0.59375 0.203125q-0.34375 0 -0.609375 -0.203125q-0.265625 -0.203125 -0.34375 -0.515625q-0.046875 -0.171875 -0.046875 -1.2031174l0 -11.921875q0 -1.015625 0.046875 -1.21875q0.078125 -0.296875 0.34375 -0.5q0.265625 -0.203125 0.609375 -0.203125q0.328125 0 0.59375 0.203125q0.28125 0.203125 0.359375 0.515625q0.046875 0.1875 0.046875 1.203125zm24.003906 0l0 11.921875q0 1.0312424 -0.046875 1.2187424q-0.078125 0.296875 -0.359375 0.5q-0.265625 0.203125 -0.59375 0.203125q-0.34375 0 -0.609375 -0.203125q-0.265625 -0.203125 -0.34375 -0.515625q-0.046875 -0.171875 -0.046875 -1.2031174l0 -11.921875q0 -1.015625 0.046875 -1.21875q0.078125 -0.296875 0.34375 -0.5q0.265625 -0.203125 0.609375 -0.203125q0.328125 0 0.59375 0.203125q0.28125 0.203125 0.359375 0.515625q0.046875 0.1875 0.046875 1.203125zm24.003906 0l0 11.921875q0 1.0312424 -0.046875 1.2187424q-0.078125 0.296875 -0.359375 0.5q-0.265625 0.203125 -0.59375 0.203125q-0.34375 0 -0.609375 -0.203125q-0.265625 -0.203125 -0.34375 -0.515625q-0.046875 -0.171875 -0.046875 -1.2031174l0 -11.921875q0 -1.015625 0.046875 -1.21875q0.078125 -0.296875 0.34375 -0.5q0.265625 -0.203125 0.609375 -0.203125q0.328125 0 0.59375 0.203125q0.28125 0.203125 0.359375 0.515625q0.046875 0.1875 0.046875 1.203125zm22.269531 5.859375q0 -1.71875 0.5625 -3.46875q0.421875 -1.28125 1.3125 -2.859375q0.625 -1.140625 0.921875 -1.390625q0.3125 -0.265625 0.6875 -0.265625q0.421875 0 0.71875 0.296875q0.296875 0.296875 0.296875 0.703125q0 0.28125 -0.234375 0.671875q-1.0625 1.734375 -1.546875 3.25q-0.484375 1.5 -0.484375 3.0625q0 1.5625 0.484375 3.078125q0.484375 1.5 1.546875 3.234375q0.234375 0.390625 0.234375 0.6718674q0 0.421875 -0.296875 0.703125q-0.296875 0.296875 -0.71875 0.296875q-0.359375 0 -0.640625 -0.234375q-0.390625 -0.34375 -1.03125 -1.5312424q-0.9375 -1.734375 -1.265625 -2.859375q-0.546875 -1.71875 -0.546875 -3.359375zm18.267578 10.859367l-11.0 0q-0.71875 0 -1.03125 -0.28125q-0.3125 -0.265625 -0.3125 -0.703125q0 -0.453125 0.3125 -0.734375q0.3125 -0.28125 1.03125 -0.28125l11.0 0q0.703125 0 1.015625 0.28125q0.3125 0.28125 0.3125 0.734375q0 0.4375 -0.3125 0.703125q-0.296875 0.28125 -1.015625 0.28125zm7.470703 -16.718742l0 11.921875q0 1.0312424 -0.046875 1.2187424q-0.078125 0.296875 -0.359375 0.5q-0.265625 0.203125 -0.59375 0.203125q-0.34375 0 -0.609375 -0.203125q-0.265625 -0.203125 -0.34375 -0.515625q-0.046875 -0.171875 -0.046875 -1.2031174l0 -11.921875q0 -1.015625 0.046875 -1.21875q0.078125 -0.296875 0.34375 -0.5q0.265625 -0.203125 0.609375 -0.203125q0.328125 0 0.59375 0.203125q0.28125 0.203125 0.359375 0.515625q0.046875 0.1875 0.046875 1.203125zm24.003906 0l0 11.921875q0 1.0312424 -0.046875 1.2187424q-0.078125 0.296875 -0.359375 0.5q-0.265625 0.203125 -0.59375 0.203125q-0.34375 0 -0.609375 -0.203125q-0.265625 -0.203125 -0.34375 -0.515625q-0.046875 -0.171875 -0.046875 -1.2031174l0 -11.921875q0 -1.015625 0.046875 -1.21875q0.078125 -0.296875 0.34375 -0.5q0.265625 -0.203125 0.609375 -0.203125q0.328125 0 0.59375 0.203125q0.28125 0.203125 0.359375 0.515625q0.046875 0.1875 0.046875 1.203125zm40.53711 16.718742l-11.0 0q-0.71875 0 -1.03125 -0.28125q-0.3125 -0.265625 -0.3125 -0.703125q0 -0.453125 0.3125 -0.734375q0.3125 -0.28125 1.03125 -0.28125l11.0 0q0.703125 0 1.015625 0.28125q0.3125 0.28125 0.3125 0.734375q0 0.4375 -0.3125 0.703125q-0.296875 0.28125 -1.015625 0.28125zm12.001953 0l-11.0 0q-0.71875 0 -1.03125 -0.28125q-0.3125 -0.265625 -0.3125 -0.703125q0 -0.453125 0.3125 -0.734375q0.3125 -0.28125 1.03125 -0.28125l11.0 0q0.703125 0 1.015625 0.28125q0.3125 0.28125 0.3125 0.734375q0 0.4375 -0.3125 0.703125q-0.296875 0.28125 -1.015625 0.28125zm10.580078 -18.406242l-6.40625 13.828125q-0.25 0.5156174 -0.453125 0.6718674q-0.25 0.21875 -0.609375 0.21875q-0.40625 0 -0.703125 -0.296875q-0.296875 -0.29686737 -0.296875 -0.6718674q0 -0.265625 0.234375 -0.765625l6.4375 -13.828125q0.234375 -0.515625 0.421875 -0.671875q0.265625 -0.203125 0.609375 -0.203125q0.421875 0 0.703125 0.296875q0.296875 0.28125 0.296875 0.65625q0 0.265625 -0.234375 0.765625zm20.894531 1.6875l0 11.921875q0 1.0312424 -0.046875 1.2187424q-0.078125 0.296875 -0.359375 0.5q-0.265625 0.203125 -0.59375 0.203125q-0.34375 0 -0.609375 -0.203125q-0.265625 -0.203125 -0.34375 -0.515625q-0.046875 -0.171875 -0.046875 -1.2031174l0 -11.921875q0 -1.015625 0.046875 -1.21875q0.078125 -0.296875 0.34375 -0.5q0.265625 -0.203125 0.609375 -0.203125q0.328125 0 0.59375 0.203125q0.28125 0.203125 0.359375 0.515625q0.046875 0.1875 0.046875 1.203125z" fill-rule="nonzero"/><path fill="#23262e" d="m12.71875 145.46939l6.421875 13.78125q0.046875 0.109375 0.15625 0.5q0.0625 0.21875 0.0625 0.34375q0 0.34375 -0.28125 0.609375q-0.265625 0.265625 -0.6875 0.265625q-0.375 0 -0.609375 -0.1875q-0.21875 -0.171875 -0.453125 -0.671875l-6.421875 -13.78125q-0.25 -0.515625 -0.25 -0.78125q0 -0.359375 0.296875 -0.65625q0.296875 -0.296875 0.703125 -0.296875q0.359375 0 0.578125 0.1875q0.234375 0.171875 0.484375 0.6875zm19.830078 19.25l-11.0 0q-0.71875 0 -1.03125 -0.28125q-0.3125 -0.265625 -0.3125 -0.703125q0 -0.453125 0.3125 -0.734375q0.3125 -0.28125 1.03125 -0.28125l11.0 0q0.703125 0 1.015625 0.28125q0.3125 0.28125 0.3125 0.734375q0 0.4375 -0.3125 0.703125q-0.296875 0.28125 -1.015625 0.28125zm12.001953 0l-11.0 0q-0.71875 0 -1.03125 -0.28125q-0.3125 -0.265625 -0.3125 -0.703125q0 -0.453125 0.3125 -0.734375q0.3125 -0.28125 1.03125 -0.28125l11.0 0q0.703125 0 1.015625 0.28125q0.3125 0.28125 0.3125 0.734375q0 0.4375 -0.3125 0.703125q-0.296875 0.28125 -1.015625 0.28125zm12.001953 0l-11.0 0q-0.71875 0 -1.03125 -0.28125q-0.3125 -0.265625 -0.3125 -0.703125q0 -0.453125 0.3125 -0.734375q0.3125 -0.28125 1.03125 -0.28125l11.0 0q0.703125 0 1.015625 0.28125q0.3125 0.28125 0.3125 0.734375q0 0.4375 -0.3125 0.703125q-0.296875 0.28125 -1.015625 0.28125zm12.001953 0l-11.0 0q-0.71875 0 -1.03125 -0.28125q-0.3125 -0.265625 -0.3125 -0.703125q0 -0.453125 0.3125 -0.734375q0.3125 -0.28125 1.03125 -0.28125l11.0 0q0.703125 0 1.015625 0.28125q0.3125 0.28125 0.3125 0.734375q0 0.4375 -0.3125 0.703125q-0.296875 0.28125 -1.015625 0.28125zm10.580078 -18.40625l-6.40625 13.828125q-0.25 0.515625 -0.453125 0.671875q-0.25 0.21875 -0.609375 0.21875q-0.40625 0 -0.703125 -0.296875q-0.296875 -0.296875 -0.296875 -0.671875q0 -0.265625 0.234375 -0.765625l6.4375 -13.828125q0.234375 -0.515625 0.421875 -0.671875q0.265625 -0.203125 0.609375 -0.203125q0.421875 0 0.703125 0.296875q0.296875 0.28125 0.296875 0.65625q0 0.265625 -0.234375 0.765625zm17.597656 -0.84375l6.421875 13.78125q0.046875 0.109375 0.15625 0.5q0.0625 0.21875 0.0625 0.34375q0 0.34375 -0.28125 0.609375q-0.265625 0.265625 -0.6875 0.265625q-0.375 0 -0.609375 -0.1875q-0.21875 -0.171875 -0.453125 -0.671875l-6.421875 -13.78125q-0.25 -0.515625 -0.25 -0.78125q0 -0.359375 0.296875 -0.65625q0.296875 -0.296875 0.703125 -0.296875q0.359375 0 0.578125 0.1875q0.234375 0.171875 0.484375 0.6875zm19.830078 19.25l-11.0 0q-0.71875 0 -1.03125 -0.28125q-0.3125 -0.265625 -0.3125 -0.703125q0 -0.453125 0.3125 -0.734375q0.3125 -0.28125 1.03125 -0.28125l11.0 0q0.703125 0 1.015625 0.28125q0.3125 0.28125 0.3125 0.734375q0 0.4375 -0.3125 0.703125q-0.296875 0.28125 -1.015625 0.28125zm12.001953 0l-11.0 0q-0.71875 0 -1.03125 -0.28125q-0.3125 -0.265625 -0.3125 -0.703125q0 -0.453125 0.3125 -0.734375q0.3125 -0.28125 1.03125 -0.28125l11.0 0q0.703125 0 1.015625 0.28125q0.3125 0.28125 0.3125 0.734375q0 0.4375 -0.3125 0.703125q-0.296875 0.28125 -1.015625 0.28125zm12.001953 0l-11.0 0q-0.71875 0 -1.03125 -0.28125q-0.3125 -0.265625 -0.3125 -0.703125q0 -0.453125 0.3125 -0.734375q0.3125 -0.28125 1.03125 -0.28125l11.0 0q0.703125 0 1.015625 0.28125q0.3125 0.28125 0.3125 0.734375q0 0.4375 -0.3125 0.703125q-0.296875 0.28125 -1.015625 0.28125zm10.580078 -18.40625l-6.40625 13.828125q-0.25 0.515625 -0.453125 0.671875q-0.25 0.21875 -0.609375 0.21875q-0.40625 0 -0.703125 -0.296875q-0.296875 -0.296875 -0.296875 -0.671875q0 -0.265625 0.234375 -0.765625l6.4375 -13.828125q0.234375 -0.515625 0.421875 -0.671875q0.265625 -0.203125 0.609375 -0.203125q0.421875 0 0.703125 0.296875q0.296875 0.28125 0.296875 0.65625q0 0.265625 -0.234375 0.765625zm8.892578 1.6875l0 11.921875q0 1.03125 -0.046875 1.21875q-0.078125 0.296875 -0.359375 0.5q-0.265625 0.203125 -0.59375 0.203125q-0.34375 0 -0.609375 -0.203125q-0.265625 -0.203125 -0.34375 -0.515625q-0.046875 -0.171875 -0.046875 -1.203125l0 -11.921875q0 -1.015625 0.046875 -1.21875q0.078125 -0.296875 0.34375 -0.5q0.265625 -0.203125 0.609375 -0.203125q0.328125 0 0.59375 0.203125q0.28125 0.203125 0.359375 0.515625q0.046875 0.1875 0.046875 1.203125zm16.533203 16.71875l-11.0 0q-0.71875 0 -1.03125 -0.28125q-0.3125 -0.265625 -0.3125 -0.703125q0 -0.453125 0.3125 -0.734375q0.3125 -0.28125 1.03125 -0.28125l11.0 0q0.703125 0 1.015625 0.28125q0.3125 0.28125 0.3125 0.734375q0 0.4375 -0.3125 0.703125q-0.296875 0.28125 -1.015625 0.28125zm7.470703 -16.71875l0 11.921875q0 1.03125 -0.046875 1.21875q-0.078125 0.296875 -0.359375 0.5q-0.265625 0.203125 -0.59375 0.203125q-0.34375 0 -0.609375 -0.203125q-0.265625 -0.203125 -0.34375 -0.515625q-0.046875 -0.171875 -0.046875 -1.203125l0 -11.921875q0 -1.015625 0.046875 -1.21875q0.078125 -0.296875 0.34375 -0.5q0.265625 -0.203125 0.609375 -0.203125q0.328125 0 0.59375 0.203125q0.28125 0.203125 0.359375 0.515625q0.046875 0.1875 0.046875 1.203125zm24.003906 0l0 11.921875q0 1.03125 -0.046875 1.21875q-0.078125 0.296875 -0.359375 0.5q-0.265625 0.203125 -0.59375 0.203125q-0.34375 0 -0.609375 -0.203125q-0.265625 -0.203125 -0.34375 -0.515625q-0.046875 -0.171875 -0.046875 -1.203125l0 -11.921875q0 -1.015625 0.046875 -1.21875q0.078125 -0.296875 0.34375 -0.5q0.265625 -0.203125 0.609375 -0.203125q0.328125 0 0.59375 0.203125q0.28125 0.203125 0.359375 0.515625q0.046875 0.1875 0.046875 1.203125zm16.533203 16.71875l-11.0 0q-0.71875 0 -1.03125 -0.28125q-0.3125 -0.265625 -0.3125 -0.703125q0 -0.453125 0.3125 -0.734375q0.3125 -0.28125 1.03125 -0.28125l11.0 0q0.703125 0 1.015625 0.28125q0.3125 0.28125 0.3125 0.734375q0 0.4375 -0.3125 0.703125q-0.296875 0.28125 -1.015625 0.28125zm7.470703 -16.71875l0 11.921875q0 1.03125 -0.046875 1.21875q-0.078125 0.296875 -0.359375 0.5q-0.265625 0.203125 -0.59375 0.203125q-0.34375 0 -0.609375 -0.203125q-0.265625 -0.203125 -0.34375 -0.515625q-0.046875 -0.171875 -0.046875 -1.203125l0 -11.921875q0 -1.015625 0.046875 -1.21875q0.078125 -0.296875 0.34375 -0.5q0.265625 -0.203125 0.609375 -0.203125q0.328125 0 0.59375 0.203125q0.28125 0.203125 0.359375 0.515625q0.046875 0.1875 0.046875 1.203125zm16.533203 16.71875l-11.0 0q-0.71875 0 -1.03125 -0.28125q-0.3125 -0.265625 -0.3125 -0.703125q0 -0.453125 0.3125 -0.734375q0.3125 -0.28125 1.03125 -0.28125l11.0 0q0.703125 0 1.015625 0.28125q0.3125 0.28125 0.3125 0.734375q0 0.4375 -0.3125 0.703125q-0.296875 0.28125 -1.015625 0.28125zm7.470703 -16.71875l0 11.921875q0 1.03125 -0.046875 1.21875q-0.078125 0.296875 -0.359375 0.5q-0.265625 0.203125 -0.59375 0.203125q-0.34375 0 -0.609375 -0.203125q-0.265625 -0.203125 -0.34375 -0.515625q-0.046875 -0.171875 -0.046875 -1.203125l0 -11.921875q0 -1.015625 0.046875 -1.21875q0.078125 -0.296875 0.34375 -0.5q0.265625 -0.203125 0.609375 -0.203125q0.328125 0 0.59375 0.203125q0.28125 0.203125 0.359375 0.515625q0.046875 0.1875 0.046875 1.203125zm24.003906 0l0 11.921875q0 1.03125 -0.046875 1.21875q-0.078125 0.296875 -0.359375 0.5q-0.265625 0.203125 -0.59375 0.203125q-0.34375 0 -0.609375 -0.203125q-0.265625 -0.203125 -0.34375 -0.515625q-0.046875 -0.171875 -0.046875 -1.203125l0 -11.921875q0 -1.015625 0.046875 -1.21875q0.078125 -0.296875 0.34375 -0.5q0.265625 -0.203125 0.609375 -0.203125q0.328125 0 0.59375 0.203125q0.28125 0.203125 0.359375 0.515625q0.046875 0.1875 0.046875 1.203125zm16.533203 16.71875l-11.0 0q-0.71875 0 -1.03125 -0.28125q-0.3125 -0.265625 -0.3125 -0.703125q0 -0.453125 0.3125 -0.734375q0.3125 -0.28125 1.03125 -0.28125l11.0 0q0.703125 0 1.015625 0.28125q0.3125 0.28125 0.3125 0.734375q0 0.4375 -0.3125 0.703125q-0.296875 0.28125 -1.015625 0.28125zm7.470703 -16.71875l0 11.921875q0 1.03125 -0.046875 1.21875q-0.078125 0.296875 -0.359375 0.5q-0.265625 0.203125 -0.59375 0.203125q-0.34375 0 -0.609375 -0.203125q-0.265625 -0.203125 -0.34375 -0.515625q-0.046875 -0.171875 -0.046875 -1.203125l0 -11.921875q0 -1.015625 0.046875 -1.21875q0.078125 -0.296875 0.34375 -0.5q0.265625 -0.203125 0.609375 -0.203125q0.328125 0 0.59375 0.203125q0.28125 0.203125 0.359375 0.515625q0.046875 0.1875 0.046875 1.203125zm8.705078 -2.53125l6.421875 13.78125q0.046875 0.109375 0.15625 0.5q0.0625 0.21875 0.0625 0.34375q0 0.34375 -0.28125 0.609375q-0.265625 0.265625 -0.6875 0.265625q-0.375 0 -0.609375 -0.1875q-0.21875 -0.171875 -0.453125 -0.671875l-6.421875 -13.78125q-0.25 -0.515625 -0.25 -0.78125q0 -0.359375 0.296875 -0.65625q0.296875 -0.296875 0.703125 -0.296875q0.359375 0 0.578125 0.1875q0.234375 0.171875 0.484375 0.6875zm19.830078 19.25l-11.0 0q-0.71875 0 -1.03125 -0.28125q-0.3125 -0.265625 -0.3125 -0.703125q0 -0.453125 0.3125 -0.734375q0.3125 -0.28125 1.03125 -0.28125l11.0 0q0.703125 0 1.015625 0.28125q0.3125 0.28125 0.3125 0.734375q0 0.4375 -0.3125 0.703125q-0.296875 0.28125 -1.015625 0.28125zm12.001953 0l-11.0 0q-0.71875 0 -1.03125 -0.28125q-0.3125 -0.265625 -0.3125 -0.703125q0 -0.453125 0.3125 -0.734375q0.3125 -0.28125 1.03125 -0.28125l11.0 0q0.703125 0 1.015625 0.28125q0.3125 0.28125 0.3125 0.734375q0 0.4375 -0.3125 0.703125q-0.296875 0.28125 -1.015625 0.28125zm12.001953 0l-11.0 0q-0.71875 0 -1.03125 -0.28125q-0.3125 -0.265625 -0.3125 -0.703125q0 -0.453125 0.3125 -0.734375q0.3125 -0.28125 1.03125 -0.28125l11.0 0q0.703125 0 1.015625 0.28125q0.3125 0.28125 0.3125 0.734375q0 0.4375 -0.3125 0.703125q-0.296875 0.28125 -1.015625 0.28125zm10.580078 -18.40625l-6.40625 13.828125q-0.25 0.515625 -0.453125 0.671875q-0.25 0.21875 -0.609375 0.21875q-0.40625 0 -0.703125 -0.296875q-0.296875 -0.296875 -0.296875 -0.671875q0 -0.265625 0.234375 -0.765625l6.4375 -13.828125q0.234375 -0.515625 0.421875 -0.671875q0.265625 -0.203125 0.609375 -0.203125q0.421875 0 0.703125 0.296875q0.296875 0.28125 0.296875 0.65625q0 0.265625 -0.234375 0.765625zm8.892578 1.6875l0 11.921875q0 1.03125 -0.046875 1.21875q-0.078125 0.296875 -0.359375 0.5q-0.265625 0.203125 -0.59375 0.203125q-0.34375 0 -0.609375 -0.203125q-0.265625 -0.203125 -0.34375 -0.515625q-0.046875 -0.171875 -0.046875 -1.203125l0 -11.921875q0 -1.015625 0.046875 -1.21875q0.078125 -0.296875 0.34375 -0.5q0.265625 -0.203125 0.609375 -0.203125q0.328125 0 0.59375 0.203125q0.28125 0.203125 0.359375 0.515625q0.046875 0.1875 0.046875 1.203125zm16.533203 16.71875l-11.0 0q-0.71875 0 -1.03125 -0.28125q-0.3125 -0.265625 -0.3125 -0.703125q0 -0.453125 0.3125 -0.734375q0.3125 -0.28125 1.03125 -0.28125l11.0 0q0.703125 0 1.015625 0.28125q0.3125 0.28125 0.3125 0.734375q0 0.4375 -0.3125 0.703125q-0.296875 0.28125 -1.015625 0.28125zm7.470703 -16.71875l0 11.921875q0 1.03125 -0.046875 1.21875q-0.078125 0.296875 -0.359375 0.5q-0.265625 0.203125 -0.59375 0.203125q-0.34375 0 -0.609375 -0.203125q-0.265625 -0.203125 -0.34375 -0.515625q-0.046875 -0.171875 -0.046875 -1.203125l0 -11.921875q0 -1.015625 0.046875 -1.21875q0.078125 -0.296875 0.34375 -0.5q0.265625 -0.203125 0.609375 -0.203125q0.328125 0 0.59375 0.203125q0.28125 0.203125 0.359375 0.515625q0.046875 0.1875 0.046875 1.203125zm56.71289 -2.53125l6.421875 13.78125q0.046875 0.109375 0.15625 0.5q0.0625 0.21875 0.0625 0.34375q0 0.34375 -0.28125 0.609375q-0.265625 0.265625 -0.6875 0.265625q-0.375 0 -0.609375 -0.1875q-0.21875 -0.171875 -0.453125 -0.671875l-6.421875 -13.78125q-0.25 -0.515625 -0.25 -0.78125q0 -0.359375 0.296875 -0.65625q0.296875 -0.296875 0.703125 -0.296875q0.359375 0 0.578125 0.1875q0.234375 0.171875 0.484375 0.6875zm19.830078 19.25l-11.0 0q-0.71875 0 -1.03125 -0.28125q-0.3125 -0.265625 -0.3125 -0.703125q0 -0.453125 0.3125 -0.734375q0.3125 -0.28125 1.03125 -0.28125l11.0 0q0.703125 0 1.015625 0.28125q0.3125 0.28125 0.3125 0.734375q0 0.4375 -0.3125 0.703125q-0.296875 0.28125 -1.015625 0.28125zm12.001953 0l-11.0 0q-0.71875 0 -1.03125 -0.28125q-0.3125 -0.265625 -0.3125 -0.703125q0 -0.453125 0.3125 -0.734375q0.3125 -0.28125 1.03125 -0.28125l11.0 0q0.703125 0 1.015625 0.28125q0.3125 0.28125 0.3125 0.734375q0 0.4375 -0.3125 0.703125q-0.296875 0.28125 -1.015625 0.28125zm12.001953 0l-11.0 0q-0.71875 0 -1.03125 -0.28125q-0.3125 -0.265625 -0.3125 -0.703125q0 -0.453125 0.3125 -0.734375q0.3125 -0.28125 1.03125 -0.28125l11.0 0q0.703125 0 1.015625 0.28125q0.3125 0.28125 0.3125 0.734375q0 0.4375 -0.3125 0.703125q-0.296875 0.28125 -1.015625 0.28125zm10.580078 -18.40625l-6.40625 13.828125q-0.25 0.515625 -0.453125 0.671875q-0.25 0.21875 -0.609375 0.21875q-0.40625 0 -0.703125 -0.296875q-0.296875 -0.296875 -0.296875 -0.671875q0 -0.265625 0.234375 -0.765625l6.4375 -13.828125q0.234375 -0.515625 0.421875 -0.671875q0.265625 -0.203125 0.609375 -0.203125q0.421875 0 0.703125 0.296875q0.296875 0.28125 0.296875 0.65625q0 0.265625 -0.234375 0.765625zm29.59961 -0.84375l6.421875 13.78125q0.046875 0.109375 0.15625 0.5q0.0625 0.21875 0.0625 0.34375q0 0.34375 -0.28125 0.609375q-0.265625 0.265625 -0.6875 0.265625q-0.375 0 -0.609375 -0.1875q-0.21875 -0.171875 -0.453125 -0.671875l-6.421875 -13.78125q-0.25 -0.515625 -0.25 -0.78125q0 -0.359375 0.296875 -0.65625q0.296875 -0.296875 0.703125 -0.296875q0.359375 0 0.578125 0.1875q0.234375 0.171875 0.484375 0.6875zm18.408203 0.84375l-6.40625 13.828125q-0.25 0.515625 -0.453125 0.671875q-0.25 0.21875 -0.609375 0.21875q-0.40625 0 -0.703125 -0.296875q-0.296875 -0.296875 -0.296875 -0.671875q0 -0.265625 0.234375 -0.765625l6.4375 -13.828125q0.234375 -0.515625 0.421875 -0.671875q0.265625 -0.203125 0.609375 -0.203125q0.421875 0 0.703125 0.296875q0.296875 0.28125 0.296875 0.65625q0 0.265625 -0.234375 0.765625zm24.003906 0l-6.40625 13.828125q-0.25 0.515625 -0.453125 0.671875q-0.25 0.21875 -0.609375 0.21875q-0.40625 0 -0.703125 -0.296875q-0.296875 -0.296875 -0.296875 -0.671875q0 -0.265625 0.234375 -0.765625l6.4375 -13.828125q0.234375 -0.515625 0.421875 -0.671875q0.265625 -0.203125 0.609375 -0.203125q0.421875 0 0.703125 0.296875q0.296875 0.28125 0.296875 0.65625q0 0.265625 -0.234375 0.765625zm13.423828 18.40625l-11.0 0q-0.71875 0 -1.03125 -0.28125q-0.3125 -0.265625 -0.3125 -0.703125q0 -0.453125 0.3125 -0.734375q0.3125 -0.28125 1.03125 -0.28125l11.0 0q0.703125 0 1.015625 0.28125q0.3125 0.28125 0.3125 0.734375q0 0.4375 -0.3125 0.703125q-0.296875 0.28125 -1.015625 0.28125zm10.580078 -18.40625l-6.40625 13.828125q-0.25 0.515625 -0.453125 0.671875q-0.25 0.21875 -0.609375 0.21875q-0.40625 0 -0.703125 -0.296875q-0.296875 -0.296875 -0.296875 -0.671875q0 -0.265625 0.234375 -0.765625l6.4375 -13.828125q0.234375 -0.515625 0.421875 -0.671875q0.265625 -0.203125 0.609375 -0.203125q0.421875 0 0.703125 0.296875q0.296875 0.28125 0.296875 0.65625q0 0.265625 -0.234375 0.765625zm17.597656 -0.84375l6.421875 13.78125q0.046875 0.109375 0.15625 0.5q0.0625 0.21875 0.0625 0.34375q0 0.34375 -0.28125 0.609375q-0.265625 0.265625 -0.6875 0.265625q-0.375 0 -0.609375 -0.1875q-0.21875 -0.171875 -0.453125 -0.671875l-6.421875 -13.78125q-0.25 -0.515625 -0.25 -0.78125q0 -0.359375 0.296875 -0.65625q0.296875 -0.296875 0.703125 -0.296875q0.359375 0 0.578125 0.1875q0.234375 0.171875 0.484375 0.6875zm19.830078 19.25l-11.0 0q-0.71875 0 -1.03125 -0.28125q-0.3125 -0.265625 -0.3125 -0.703125q0 -0.453125 0.3125 -0.734375q0.3125 -0.28125 1.03125 -0.28125l11.0 0q0.703125 0 1.015625 0.28125q0.3125 0.28125 0.3125 0.734375q0 0.4375 -0.3125 0.703125q-0.296875 0.28125 -1.015625 0.28125zm12.001953 0l-11.0 0q-0.71875 0 -1.03125 -0.28125q-0.3125 -0.265625 -0.3125 -0.703125q0 -0.453125 0.3125 -0.734375q0.3125 -0.28125 1.03125 -0.28125l11.0 0q0.703125 0 1.015625 0.28125q0.3125 0.28125 0.3125 0.734375q0 0.4375 -0.3125 0.703125q-0.296875 0.28125 -1.015625 0.28125zm5.986328 -8.703125l2.671875 0l-2.875 5.4375q-0.265625 0.484375 -0.640625 0.484375q-0.25 0 -0.4375 -0.171875q-0.171875 -0.171875 -0.171875 -0.375q0 -0.140625 0.0625 -0.390625l1.390625 -4.984375zm18.017578 8.703125l-11.0 0q-0.71875 0 -1.03125 -0.28125q-0.3125 -0.265625 -0.3125 -0.703125q0 -0.453125 0.3125 -0.734375q0.3125 -0.28125 1.03125 -0.28125l11.0 0q0.703125 0 1.015625 0.28125q0.3125 0.28125 0.3125 0.734375q0 0.4375 -0.3125 0.703125q-0.296875 0.28125 -1.015625 0.28125zm7.470703 -16.71875l0 11.921875q0 1.03125 -0.046875 1.21875q-0.078125 0.296875 -0.359375 0.5q-0.265625 0.203125 -0.59375 0.203125q-0.34375 0 -0.609375 -0.203125q-0.265625 -0.203125 -0.34375 -0.515625q-0.046875 -0.171875 -0.046875 -1.203125l0 -11.921875q0 -1.015625 0.046875 -1.21875q0.078125 -0.296875 0.34375 -0.5q0.265625 -0.203125 0.609375 -0.203125q0.328125 0 0.59375 0.203125q0.28125 0.203125 0.359375 0.515625q0.046875 0.1875 0.046875 1.203125zm16.533203 16.71875l-11.0 0q-0.71875 0 -1.03125 -0.28125q-0.3125 -0.265625 -0.3125 -0.703125q0 -0.453125 0.3125 -0.734375q0.3125 -0.28125 1.03125 -0.28125l11.0 0q0.703125 0 1.015625 0.28125q0.3125 0.28125 0.3125 0.734375q0 0.4375 -0.3125 0.703125q-0.296875 0.28125 -1.015625 0.28125zm7.470703 -16.71875l0 11.921875q0 1.03125 -0.046875 1.21875q-0.078125 0.296875 -0.359375 0.5q-0.265625 0.203125 -0.59375 0.203125q-0.34375 0 -0.609375 -0.203125q-0.265625 -0.203125 -0.34375 -0.515625q-0.046875 -0.171875 -0.046875 -1.203125l0 -11.921875q0 -1.015625 0.046875 -1.21875q0.078125 -0.296875 0.34375 -0.5q0.265625 -0.203125 0.609375 -0.203125q0.328125 0 0.59375 0.203125q0.28125 0.203125 0.359375 0.515625q0.046875 0.1875 0.046875 1.203125zm24.003906 0l0 11.921875q0 1.03125 -0.046875 1.21875q-0.078125 0.296875 -0.359375 0.5q-0.265625 0.203125 -0.59375 0.203125q-0.34375 0 -0.609375 -0.203125q-0.265625 -0.203125 -0.34375 -0.515625q-0.046875 -0.171875 -0.046875 -1.203125l0 -11.921875q0 -1.015625 0.046875 -1.21875q0.078125 -0.296875 0.34375 -0.5q0.265625 -0.203125 0.609375 -0.203125q0.328125 0 0.59375 0.203125q0.28125 0.203125 0.359375 0.515625q0.046875 0.1875 0.046875 1.203125zm16.533203 16.71875l-11.0 0q-0.71875 0 -1.03125 -0.28125q-0.3125 -0.265625 -0.3125 -0.703125q0 -0.453125 0.3125 -0.734375q0.3125 -0.28125 1.03125 -0.28125l11.0 0q0.703125 0 1.015625 0.28125q0.3125 0.28125 0.3125 0.734375q0 0.4375 -0.3125 0.703125q-0.296875 0.28125 -1.015625 0.28125zm7.470703 -16.71875l0 11.921875q0 1.03125 -0.046875 1.21875q-0.078125 0.296875 -0.359375 0.5q-0.265625 0.203125 -0.59375 0.203125q-0.34375 0 -0.609375 -0.203125q-0.265625 -0.203125 -0.34375 -0.515625q-0.046875 -0.171875 -0.046875 -1.203125l0 -11.921875q0 -1.015625 0.046875 -1.21875q0.078125 -0.296875 0.34375 -0.5q0.265625 -0.203125 0.609375 -0.203125q0.328125 0 0.59375 0.203125q0.28125 0.203125 0.359375 0.515625q0.046875 0.1875 0.046875 1.203125zm8.705078 -2.53125l6.421875 13.78125q0.046875 0.109375 0.15625 0.5q0.0625 0.21875 0.0625 0.34375q0 0.34375 -0.28125 0.609375q-0.265625 0.265625 -0.6875 0.265625q-0.375 0 -0.609375 -0.1875q-0.21875 -0.171875 -0.453125 -0.671875l-6.421875 -13.78125q-0.25 -0.515625 -0.25 -0.78125q0 -0.359375 0.296875 -0.65625q0.296875 -0.296875 0.703125 -0.296875q0.359375 0 0.578125 0.1875q0.234375 0.171875 0.484375 0.6875zm19.830078 19.25l-11.0 0q-0.71875 0 -1.03125 -0.28125q-0.3125 -0.265625 -0.3125 -0.703125q0 -0.453125 0.3125 -0.734375q0.3125 -0.28125 1.03125 -0.28125l11.0 0q0.703125 0 1.015625 0.28125q0.3125 0.28125 0.3125 0.734375q0 0.4375 -0.3125 0.703125q-0.296875 0.28125 -1.015625 0.28125zm12.001953 0l-11.0 0q-0.71875 0 -1.03125 -0.28125q-0.3125 -0.265625 -0.3125 -0.703125q0 -0.453125 0.3125 -0.734375q0.3125 -0.28125 1.03125 -0.28125l11.0 0q0.703125 0 1.015625 0.28125q0.3125 0.28125 0.3125 0.734375q0 0.4375 -0.3125 0.703125q-0.296875 0.28125 -1.015625 0.28125zm5.986328 -8.703125l2.671875 0l-2.875 5.4375q-0.265625 0.484375 -0.640625 0.484375q-0.25 0 -0.4375 -0.171875q-0.171875 -0.171875 -0.171875 -0.375q0 -0.140625 0.0625 -0.390625l1.390625 -4.984375zm18.017578 8.703125l-11.0 0q-0.71875 0 -1.03125 -0.28125q-0.3125 -0.265625 -0.3125 -0.703125q0 -0.453125 0.3125 -0.734375q0.3125 -0.28125 1.03125 -0.28125l11.0 0q0.703125 0 1.015625 0.28125q0.3125 0.28125 0.3125 0.734375q0 0.4375 -0.3125 0.703125q-0.296875 0.28125 -1.015625 0.28125zm7.470703 -16.71875l0 11.921875q0 1.03125 -0.046875 1.21875q-0.078125 0.296875 -0.359375 0.5q-0.265625 0.203125 -0.59375 0.203125q-0.34375 0 -0.609375 -0.203125q-0.265625 -0.203125 -0.34375 -0.515625q-0.046875 -0.171875 -0.046875 -1.203125l0 -11.921875q0 -1.015625 0.046875 -1.21875q0.078125 -0.296875 0.34375 -0.5q0.265625 -0.203125 0.609375 -0.203125q0.328125 0 0.59375 0.203125q0.28125 0.203125 0.359375 0.515625q0.046875 0.1875 0.046875 1.203125zm8.705078 -2.53125l6.421875 13.78125q0.046875 0.109375 0.15625 0.5q0.0625 0.21875 0.0625 0.34375q0 0.34375 -0.28125 0.609375q-0.265625 0.265625 -0.6875 0.265625q-0.375 0 -0.609375 -0.1875q-0.21875 -0.171875 -0.453125 -0.671875l-6.421875 -13.78125q-0.25 -0.515625 -0.25 -0.78125q0 -0.359375 0.296875 -0.65625q0.296875 -0.296875 0.703125 -0.296875q0.359375 0 0.578125 0.1875q0.234375 0.171875 0.484375 0.6875zm19.830078 19.25l-11.0 0q-0.71875 0 -1.03125 -0.28125q-0.3125 -0.265625 -0.3125 -0.703125q0 -0.453125 0.3125 -0.734375q0.3125 -0.28125 1.03125 -0.28125l11.0 0q0.703125 0 1.015625 0.28125q0.3125 0.28125 0.3125 0.734375q0 0.4375 -0.3125 0.703125q-0.296875 0.28125 -1.015625 0.28125zm12.001953 0l-11.0 0q-0.71875 0 -1.03125 -0.28125q-0.3125 -0.265625 -0.3125 -0.703125q0 -0.453125 0.3125 -0.734375q0.3125 -0.28125 1.03125 -0.28125l11.0 0q0.703125 0 1.015625 0.28125q0.3125 0.28125 0.3125 0.734375q0 0.4375 -0.3125 0.703125q-0.296875 0.28125 -1.015625 0.28125zm12.001953 0l-11.0 0q-0.71875 0 -1.03125 -0.28125q-0.3125 -0.265625 -0.3125 -0.703125q0 -0.453125 0.3125 -0.734375q0.3125 -0.28125 1.03125 -0.28125l11.0 0q0.703125 0 1.015625 0.28125q0.3125 0.28125 0.3125 0.734375q0 0.4375 -0.3125 0.703125q-0.296875 0.28125 -1.015625 0.28125zm7.470703 -16.71875l0 11.921875q0 1.03125 -0.046875 1.21875q-0.078125 0.296875 -0.359375 0.5q-0.265625 0.203125 -0.59375 0.203125q-0.34375 0 -0.609375 -0.203125q-0.265625 -0.203125 -0.34375 -0.515625q-0.046875 -0.171875 -0.046875 -1.203125l0 -11.921875q0 -1.015625 0.046875 -1.21875q0.078125 -0.296875 0.34375 -0.5q0.265625 -0.203125 0.609375 -0.203125q0.328125 0 0.59375 0.203125q0.28125 0.203125 0.359375 0.515625q0.046875 0.1875 0.046875 1.203125zm16.533203 16.71875l-11.0 0q-0.71875 0 -1.03125 -0.28125q-0.3125 -0.265625 -0.3125 -0.703125q0 -0.453125 0.3125 -0.734375q0.3125 -0.28125 1.03125 -0.28125l11.0 0q0.703125 0 1.015625 0.28125q0.3125 0.28125 0.3125 0.734375q0 0.4375 -0.3125 0.703125q-0.296875 0.28125 -1.015625 0.28125zm7.470703 -16.71875l0 11.921875q0 1.03125 -0.046875 1.21875q-0.078125 0.296875 -0.359375 0.5q-0.265625 0.203125 -0.59375 0.203125q-0.34375 0 -0.609375 -0.203125q-0.265625 -0.203125 -0.34375 -0.515625q-0.046875 -0.171875 -0.046875 -1.203125l0 -11.921875q0 -1.015625 0.046875 -1.21875q0.078125 -0.296875 0.34375 -0.5q0.265625 -0.203125 0.609375 -0.203125q0.328125 0 0.59375 0.203125q0.28125 0.203125 0.359375 0.515625q0.046875 0.1875 0.046875 1.203125z" fill-rule="nonzero"/></g></svg>